<?xml version="1.0" encoding="UTF-8" standalone="no"?>
<!-- Created with Inkscape (http://www.inkscape.org/) -->

<svg
   xmlns:dc="http://purl.org/dc/elements/1.1/"
   xmlns:cc="http://creativecommons.org/ns#"
   xmlns:rdf="http://www.w3.org/1999/02/22-rdf-syntax-ns#"
   xmlns:svg="http://www.w3.org/2000/svg"
   xmlns="http://www.w3.org/2000/svg"
   xmlns:sodipodi="http://sodipodi.sourceforge.net/DTD/sodipodi-0.dtd"
   xmlns:inkscape="http://www.inkscape.org/namespaces/inkscape"
   width="50"
   height="50"
   viewBox="0 0 13.229166 13.229167"
   version="1.1"
   id="svg8163"
   inkscape:version="0.92.4 5da689c313, 2019-01-14"
   sodipodi:docname="auto-icon.svg">
  <defs
     id="defs8157" />
  <sodipodi:namedview
     id="base"
     pagecolor="#ffffff"
     bordercolor="#666666"
     borderopacity="1.0"
     inkscape:pageopacity="0.0"
     inkscape:pageshadow="2"
     inkscape:zoom="7.9195959"
     inkscape:cx="20.974072"
     inkscape:cy="24.836248"
     inkscape:document-units="px"
     inkscape:current-layer="layer1"
     showgrid="false"
     units="px"
     inkscape:snap-nodes="false"
     inkscape:window-width="1366"
     inkscape:window-height="686"
     inkscape:window-x="0"
     inkscape:window-y="0"
     inkscape:window-maximized="1" />
  <metadata
     id="metadata8160">
    <rdf:RDF>
      <cc:Work
         rdf:about="">
        <dc:format>image/svg+xml</dc:format>
        <dc:type
           rdf:resource="http://purl.org/dc/dcmitype/StillImage" />
        <dc:title></dc:title>
      </cc:Work>
    </rdf:RDF>
  </metadata>
  <g
     inkscape:label="Camada 1"
     inkscape:groupmode="layer"
     id="layer1"
     transform="translate(0,-283.77082)">
    <path
       style="opacity:1;fill:#c1ddfa;fill-opacity:1;fill-rule:evenodd;stroke:none;stroke-width:0.91393971;stroke-linecap:round;stroke-linejoin:miter;stroke-miterlimit:4;stroke-dasharray:none;stroke-dashoffset:0;stroke-opacity:1;paint-order:normal"
       d="m 4.9910831,284.12173 a 4.8553992,4.8553992 0 0 0 -0.6120386,0.0452 l -0.2746249,1.0275 a 3.8896844,3.8896844 0 0 0 -1.1630492,0.48 l -0.9224584,-0.5334 a 4.8553992,4.8553992 0 0 0 -0.8626047,0.8673 l 0.5328195,0.92186 a 3.8896844,3.8896844 0 0 0 -0.4811805,1.1607 l -1.02867059,0.27463 a 4.8553992,4.8553992 0 0 0 -0.0434237,0.61205 4.8553992,4.8553992 0 0 0 0.0445973,0.61203 l 1.02808369,0.27521 a 3.8896844,3.8896844 0 0 0 0.4794204,1.16188 l -0.5334063,0.92305 a 4.8553992,4.8553992 0 0 0 0.8678854,0.8626 l 0.9218721,-0.53282 a 3.8896844,3.8896844 0 0 0 1.160115,0.4806 l 0.2752117,1.02925 a 4.8553992,4.8553992 0 0 0 0.6114518,0.0434 4.8553992,4.8553992 0 0 0 0.6120384,-0.0446 l 0.2752119,-1.02808 a 3.8896844,3.8896844 0 0 0 1.1612885,-0.48001 l 0.9230457,0.5334 a 4.8553992,4.8553992 0 0 0 0.8626045,-0.86729 l -0.5328197,-0.92188 a 3.8896844,3.8896844 0 0 0 0.4811805,-1.15953 l 1.0292576,-0.27521 a 4.8553992,4.8553992 0 0 0 0.043424,-0.61203 4.8553992,4.8553992 0 0 0 -0.044597,-0.61205 l -1.028084,-0.2752 a 3.8896844,3.8896844 0 0 0 -0.4794203,-1.16194 l 0.5334065,-0.92304 a 4.8553992,4.8553992 0 0 0 -0.8678857,-0.8626 l -0.9218718,0.53281 a 3.8896844,3.8896844 0 0 0 -1.160115,-0.48117 l -0.2746257,-1.0286 a 4.8553992,4.8553992 0 0 0 -0.6120384,-0.0441 z m -0.4835279,3.11887 v 0.88374 a 0.9815645,0.9815645 0 0 0 -0.3696878,0.3691 H 3.2558983 a 1.8031573,1.8031573 0 0 1 1.2516569,-1.25284 z m 0.9670559,0.002 a 1.8031573,1.8031573 0 0 1 1.2534171,1.25108 H 5.8437117 a 0.9815645,0.9815645 0 0 0 -0.3691006,-0.36969 z m -0.483528,1.28981 a 0.44505639,0.44505639 0 0 1 0.4447989,0.4448 0.44505639,0.44505639 0 0 1 -0.4447989,0.44538 0.44505639,0.44505639 0 0 1 -0.4447988,-0.44538 0.44505639,0.44505639 0 0 1 0.4447988,-0.4448 z m -1.7369451,0.92891 h 0.8843162 a 0.9815645,0.9815645 0 0 0 0.369101,0.36969 v 0.88138 A 1.8031573,1.8031573 0 0 1 3.254138,289.46132 Z m 2.5901605,0 h 0.8819691 a 1.8031573,1.8031573 0 0 1 -1.2516565,1.25283 v -0.88373 a 0.9815645,0.9815645 0 0 0 0.3696874,-0.3691 z"
       id="path8712"
       inkscape:connector-curvature="0" />
    <path
       style="opacity:1;fill:#c1ddfa;fill-opacity:1;fill-rule:evenodd;stroke:none;stroke-width:0.46642441;stroke-linecap:round;stroke-linejoin:miter;stroke-miterlimit:4;stroke-dasharray:none;stroke-dashoffset:0;stroke-opacity:1;paint-order:normal"
       d="m 9.7897521,290.71178 a 2.9930075,2.9930075 0 0 0 -0.8766457,0.23446 l 0.00311,1.13066 a 1.9850805,1.9850805 0 0 0 -0.5388167,0.6023 1.9850805,1.9850805 0 0 0 -0.2508109,0.76654 l -0.9821239,0.56387 a 2.9930075,2.9930075 0 0 0 0.2344673,0.87664 l 1.1456529,-0.003 a 1.9850805,1.9850805 0 0 0 0.5794309,0.508 1.9850805,1.9850805 0 0 0 0.7563635,0.24967 l 0.5819135,1.01423 a 2.9930075,2.9930075 0 0 0 0.876939,-0.23497 l -0.0034,-1.183 a 1.9850805,1.9850805 0 0 0 0.499963,-0.57256 1.9850805,1.9850805 0 0 0 0.24587,-0.71926 l 1.026195,-0.58855 a 2.9930075,2.9930075 0 0 0 -0.235269,-0.87643 l -1.166688,0.003 a 1.9850805,1.9850805 0 0 0 -0.59673,-0.53087 1.9850805,1.9850805 0 0 0 -0.729443,-0.247 z m 0.7586419,2.22209 a 0.86538499,0.86538499 0 0 1 0.317103,1.18183 0.86538499,0.86538499 0 0 1 -1.1823479,0.31681 0.86538499,0.86538499 0 0 1 -0.3168083,-1.18235 0.86538499,0.86538499 0 0 1 1.1820532,-0.31629 z"
       id="circle8717"
       inkscape:connector-curvature="0" />
  </g>
</svg>
