<?xml version="1.0" encoding="UTF-8" standalone="no"?>
<!-- Created with Inkscape (http://www.inkscape.org/) -->

<svg
   xmlns:dc="http://purl.org/dc/elements/1.1/"
   xmlns:cc="http://creativecommons.org/ns#"
   xmlns:rdf="http://www.w3.org/1999/02/22-rdf-syntax-ns#"
   xmlns:svg="http://www.w3.org/2000/svg"
   xmlns="http://www.w3.org/2000/svg"
   xmlns:sodipodi="http://sodipodi.sourceforge.net/DTD/sodipodi-0.dtd"
   xmlns:inkscape="http://www.inkscape.org/namespaces/inkscape"
   width="320"
   height="320"
   viewBox="0 0 84.666665 84.666669"
   version="1.1"
   id="svg9926"
   inkscape:version="0.92.4 5da689c313, 2019-01-14"
   sodipodi:docname="bg-05.svg">
  <defs
     id="defs9920" />
  <sodipodi:namedview
     id="base"
     pagecolor="#ffffff"
     bordercolor="#666666"
     borderopacity="1.0"
     inkscape:pageopacity="0.0"
     inkscape:pageshadow="2"
     inkscape:zoom="0.98994949"
     inkscape:cx="-0.60139375"
     inkscape:cy="108.79649"
     inkscape:document-units="px"
     inkscape:current-layer="layer1"
     showgrid="false"
     units="px"
     inkscape:window-width="1366"
     inkscape:window-height="686"
     inkscape:window-x="0"
     inkscape:window-y="0"
     inkscape:window-maximized="1" />
  <metadata
     id="metadata9923">
    <rdf:RDF>
      <cc:Work
         rdf:about="">
        <dc:format>image/svg+xml</dc:format>
        <dc:type
           rdf:resource="http://purl.org/dc/dcmitype/StillImage" />
        <dc:title></dc:title>
      </cc:Work>
    </rdf:RDF>
  </metadata>
  <g
     inkscape:label="Camada 1"
     inkscape:groupmode="layer"
     id="layer1"
     transform="translate(0,-212.33332)">
    <g
       id="g10505"
       style="opacity:0.15">
      <path
         inkscape:connector-curvature="0"
         id="path6823"
         d="m 42.470913,220.85892 c -11.44111,0 -24.507807,0.81282 -32.442743,6.93708 -7.9349299,6.1243 -8.9893396,16.21134 -8.9893396,25.04175 0,6.68351 0.6130318,14.08217 4.347201,19.94186 -0.9758865,2.25665 -2.1656132,5.26971 -2.5407328,7.49009 -0.6517107,3.85737 0.3010611,11.57308 0.3010611,11.57308 0,0 -0.6568175,-5.71624 4.0461285,-10.01546 1.3567306,-1.24022 2.8252888,-2.19774 4.2366028,-2.9678 8.013394,5.22517 20.247477,5.95398 31.041804,5.95398 11.441091,0 24.507808,-0.81282 32.442737,-6.93708 7.934924,-6.1243 8.98934,-16.20831 8.98934,-25.03867 5e-6,-8.83041 -1.05441,-18.91745 -8.98934,-25.04175 -7.934929,-6.12426 -21.00164,-6.93708 -32.442737,-6.93708 z"
         style="opacity:1;fill:#c1ddfa;fill-opacity:1;fill-rule:evenodd;stroke:none;stroke-width:110.5526886;stroke-linecap:round;stroke-linejoin:miter;stroke-miterlimit:4;stroke-dasharray:none;stroke-dashoffset:0;stroke-opacity:1;paint-order:normal" />
      <path
         id="rect6853"
         d="m 54.145381,234.5103 -12.795839,9.31804 -6.488545,4.72511 H 22.965329 v 9.18285 h 2.817234 v 15.72682 h 5.016949 V 257.7363 h 4.061485 l 6.488545,4.72816 12.795839,9.31816 v -18.63613 z"
         style="opacity:1;fill:#f9f9f9;fill-opacity:1;fill-rule:evenodd;stroke:none;stroke-width:94.34976959;stroke-linecap:round;stroke-linejoin:miter;stroke-miterlimit:4;stroke-dasharray:none;stroke-dashoffset:0;stroke-opacity:1;paint-order:normal"
         inkscape:connector-curvature="0" />
      <rect
         y="247.71841"
         x="24.323851"
         height="10.854441"
         width="7.9320903"
         id="rect6833"
         style="opacity:1;fill:#da1945;fill-opacity:1;fill-rule:evenodd;stroke:none;stroke-width:78.13829803;stroke-linecap:round;stroke-linejoin:miter;stroke-miterlimit:4;stroke-dasharray:none;stroke-dashoffset:0;stroke-opacity:1;paint-order:normal" />
      <path
         sodipodi:nodetypes="czccczccc"
         inkscape:connector-curvature="0"
         id="rect6840"
         d="m 52.007139,235.74011 c 0,0 -0.02259,-3.48562 2.785244,-3.48562 2.80793,0 2.785232,3.48562 2.785232,3.48562 v 17.40376 17.404 c 0,0 0.0044,3.60744 -2.785232,3.60744 -2.789615,0 -2.785244,-3.60744 -2.785244,-3.60744 v -17.404 z"
         style="opacity:1;fill:#da1945;fill-opacity:1;fill-rule:evenodd;stroke:none;stroke-width:117.2600708;stroke-linecap:round;stroke-linejoin:miter;stroke-miterlimit:4;stroke-dasharray:none;stroke-dashoffset:0;stroke-opacity:1;paint-order:normal" />
    </g>
  </g>
</svg>
