<?xml version="1.0" encoding="UTF-8" standalone="no"?>
<!-- Created with Inkscape (http://www.inkscape.org/) -->

<svg
   xmlns:dc="http://purl.org/dc/elements/1.1/"
   xmlns:cc="http://creativecommons.org/ns#"
   xmlns:rdf="http://www.w3.org/1999/02/22-rdf-syntax-ns#"
   xmlns:svg="http://www.w3.org/2000/svg"
   xmlns="http://www.w3.org/2000/svg"
   xmlns:sodipodi="http://sodipodi.sourceforge.net/DTD/sodipodi-0.dtd"
   xmlns:inkscape="http://www.inkscape.org/namespaces/inkscape"
   width="320"
   height="320"
   viewBox="0 0 84.666665 84.666669"
   version="1.1"
   id="svg11144"
   inkscape:version="0.92.4 5da689c313, 2019-01-14"
   sodipodi:docname="bg-07.svg">
  <defs
     id="defs11138" />
  <sodipodi:namedview
     id="base"
     pagecolor="#ffffff"
     bordercolor="#666666"
     borderopacity="1.0"
     inkscape:pageopacity="0.0"
     inkscape:pageshadow="2"
     inkscape:zoom="1.4"
     inkscape:cx="138.26592"
     inkscape:cy="137.42429"
     inkscape:document-units="px"
     inkscape:current-layer="layer1"
     showgrid="false"
     units="px"
     inkscape:window-width="1366"
     inkscape:window-height="686"
     inkscape:window-x="0"
     inkscape:window-y="0"
     inkscape:window-maximized="1" />
  <metadata
     id="metadata11141">
    <rdf:RDF>
      <cc:Work
         rdf:about="">
        <dc:format>image/svg+xml</dc:format>
        <dc:type
           rdf:resource="http://purl.org/dc/dcmitype/StillImage" />
        <dc:title></dc:title>
      </cc:Work>
    </rdf:RDF>
  </metadata>
  <g
     inkscape:label="Camada 1"
     inkscape:groupmode="layer"
     id="layer1"
     transform="translate(0,-212.33332)">
    <g
       id="g11709"
       style="opacity:0.15">
      <path
         inkscape:connector-curvature="0"
         id="path8712"
         d="m 31.809294,214.0489 a 31.470535,31.470535 0 0 0 -3.966965,0.29296 l -1.779996,6.6598 a 25.211202,25.211202 0 0 0 -7.538367,3.11114 l -5.978961,-3.45725 a 31.470535,31.470535 0 0 0 -5.5910213,5.62144 l 3.4534943,5.9751 a 25.211202,25.211202 0 0 0 -3.118793,7.52313 l -6.66738689,1.78003 a 31.470535,31.470535 0 0 0 -0.28142908,3.96704 31.470535,31.470535 0 0 0 0.28907734,3.96691 l 6.66358163,1.78378 a 25.211202,25.211202 0 0 0 3.107387,7.53078 l -3.4572997,5.98281 a 31.470535,31.470535 0 0 0 5.6252447,5.59098 l 5.975163,-3.4535 a 25.211202,25.211202 0 0 0 7.519348,3.11504 l 1.783802,6.67114 a 31.470535,31.470535 0 0 0 3.963159,0.28129 31.470535,31.470535 0 0 0 3.966958,-0.28907 l 1.783801,-6.66355 a 25.211202,25.211202 0 0 0 7.526958,-3.11122 l 5.982766,3.45726 a 31.470535,31.470535 0 0 0 5.591021,-5.62139 l -3.453501,-5.97521 a 25.211202,25.211202 0 0 0 3.118801,-7.51556 l 6.671185,-1.78379 a 31.470535,31.470535 0 0 0 0.281428,-3.9669 31.470535,31.470535 0 0 0 -0.289077,-3.96703 l -6.663575,-1.78373 a 25.211202,25.211202 0 0 0 -3.107393,-7.53117 l 3.457307,-5.98273 a 31.470535,31.470535 0 0 0 -5.625251,-5.591 l -5.975164,3.45343 a 25.211202,25.211202 0 0 0 -7.519347,-3.11872 l -1.780004,-6.66693 a 31.470535,31.470535 0 0 0 -3.966958,-0.28584 z m -3.134013,20.21512 v 5.72801 a 6.3620638,6.3620638 0 0 0 -2.396154,2.39234 h -5.71653 a 11.687262,11.687262 0 0 1 8.112684,-8.12035 z m 6.268025,0.013 a 11.687262,11.687262 0 0 1 8.124091,8.10894 h -5.731749 a 6.3620638,6.3620638 0 0 0 -2.392342,-2.39619 z m -3.134012,8.35995 a 2.8846573,2.8846573 0 0 1 2.882987,2.883 2.8846573,2.8846573 0 0 1 -2.882987,2.88675 2.8846573,2.8846573 0 0 1 -2.882989,-2.88675 2.8846573,2.8846573 0 0 1 2.882989,-2.883 z m -11.258105,6.02084 h 5.731744 a 6.3620638,6.3620638 0 0 0 2.392348,2.39618 v 5.71271 a 11.687262,11.687262 0 0 1 -8.124092,-8.10894 z m 16.788264,0 h 5.716531 a 11.687262,11.687262 0 0 1 -8.112678,8.12029 v -5.72794 a 6.3620638,6.3620638 0 0 0 2.396147,-2.39235 z"
         style="opacity:1;fill:#c1ddfa;fill-opacity:1;fill-rule:evenodd;stroke:none;stroke-width:5.92374992;stroke-linecap:round;stroke-linejoin:miter;stroke-miterlimit:4;stroke-dasharray:none;stroke-dashoffset:0;stroke-opacity:1;paint-order:normal" />
      <path
         inkscape:connector-curvature="0"
         id="circle8717"
         d="m 62.912127,256.76266 a 19.399341,19.399341 0 0 0 -5.682028,1.51967 l 0.0201,7.32843 a 12.866408,12.866408 0 0 0 -3.492371,3.90385 12.866408,12.866408 0 0 0 -1.625646,4.96836 l -6.365683,3.65475 a 19.399341,19.399341 0 0 0 1.519711,5.68199 l 7.425612,-0.0195 a 12.866408,12.866408 0 0 0 3.755613,3.29264 12.866408,12.866408 0 0 0 4.902409,1.61825 l 3.771701,6.57379 a 19.399341,19.399341 0 0 0 5.683927,-1.52298 l -0.02205,-7.66767 a 12.866408,12.866408 0 0 0 3.240544,-3.71108 12.866408,12.866408 0 0 0 1.593614,-4.66192 l 6.651346,-3.81472 a 19.399341,19.399341 0 0 0 -1.524844,-5.68062 l -7.561959,0.0195 a 12.866408,12.866408 0 0 0 -3.867738,-3.44086 12.866408,12.866408 0 0 0 -4.727925,-1.60094 z m 4.91718,14.4026 a 5.6090401,5.6090401 0 0 1 2.055321,7.6601 5.6090401,5.6090401 0 0 1 -7.663454,2.05342 5.6090401,5.6090401 0 0 1 -2.053408,-7.66348 5.6090401,5.6090401 0 0 1 7.661541,-2.05004 z"
         style="opacity:1;fill:#c1ddfa;fill-opacity:1;fill-rule:evenodd;stroke:none;stroke-width:3.02315497;stroke-linecap:round;stroke-linejoin:miter;stroke-miterlimit:4;stroke-dasharray:none;stroke-dashoffset:0;stroke-opacity:1;paint-order:normal" />
    </g>
  </g>
</svg>
