<?xml version="1.0" encoding="UTF-8" standalone="no"?>
<!-- Created with Inkscape (http://www.inkscape.org/) -->

<svg
   xmlns:dc="http://purl.org/dc/elements/1.1/"
   xmlns:cc="http://creativecommons.org/ns#"
   xmlns:rdf="http://www.w3.org/1999/02/22-rdf-syntax-ns#"
   xmlns:svg="http://www.w3.org/2000/svg"
   xmlns="http://www.w3.org/2000/svg"
   xmlns:sodipodi="http://sodipodi.sourceforge.net/DTD/sodipodi-0.dtd"
   xmlns:inkscape="http://www.inkscape.org/namespaces/inkscape"
   width="400"
   height="356.62451"
   viewBox="0 0 105.83333 94.356905"
   version="1.1"
   id="svg4493"
   inkscape:version="0.92.4 5da689c313, 2019-01-14"
   sodipodi:docname="bg-03.svg">
  <defs
     id="defs4487" />
  <sodipodi:namedview
     id="base"
     pagecolor="#ffffff"
     bordercolor="#666666"
     borderopacity="1.0"
     inkscape:pageopacity="0.0"
     inkscape:pageshadow="2"
     inkscape:zoom="0.49497475"
     inkscape:cx="41.875819"
     inkscape:cy="41.913712"
     inkscape:document-units="px"
     inkscape:current-layer="layer1"
     showgrid="false"
     units="px"
     showborder="false"
     inkscape:window-width="1366"
     inkscape:window-height="686"
     inkscape:window-x="0"
     inkscape:window-y="0"
     inkscape:window-maximized="1" />
  <metadata
     id="metadata4490">
    <rdf:RDF>
      <cc:Work
         rdf:about="">
        <dc:format>image/svg+xml</dc:format>
        <dc:type
           rdf:resource="http://purl.org/dc/dcmitype/StillImage" />
        <dc:title></dc:title>
      </cc:Work>
    </rdf:RDF>
  </metadata>
  <g
     inkscape:label="Camada 1"
     inkscape:groupmode="layer"
     id="layer1"
     transform="translate(61.268542,-19.48177)">
    <g
       style="opacity:0.15;fill:#b7e0f9;fill-opacity:1"
       id="g2616"
       transform="matrix(-1.142196,0,0,1.142196,197.6586,-242.64537)">
      <path
         style="opacity:1;fill:#b7e0f9;fill-opacity:1;fill-rule:evenodd;stroke:none;stroke-width:0.01322917;stroke-linecap:butt;stroke-linejoin:round;stroke-miterlimit:4;stroke-dasharray:none;stroke-dashoffset:0;stroke-opacity:1;paint-order:stroke fill markers"
         d="m 180.36522,229.49401 a 8.8243343,8.8243343 0 0 0 -7.69875,4.52737 l -18.69085,32.37322 -18.68517,32.36391 h -5.1e-4 a 8.8243349,8.8243349 0 0 0 -0.078,8.94003 8.8243349,8.8243349 0 0 0 7.77006,4.40283 l -0.001,-0.003 h 37.38015 37.37136 l 1.21853,-7.11636 6.49211,-6.21408 -18.69136,-32.37426 -18.68465,-32.36185 0.002,-5.2e-4 a 8.8243343,8.8243343 0 0 0 -7.70341,-4.53719 z m 45.07787,69.27485 -6.48952,6.21564 -1.21957,7.11843 a 8.8243346,8.8243346 0 0 0 7.78092,-4.40388 8.8243346,8.8243346 0 0 0 -0.0718,-8.93019 z"
         id="path2614"
         inkscape:connector-curvature="0" />
    </g>
  </g>
</svg>
