<?xml version="1.0" encoding="UTF-8" standalone="no"?>
<!-- Created with Inkscape (http://www.inkscape.org/) -->

<svg
   xmlns:dc="http://purl.org/dc/elements/1.1/"
   xmlns:cc="http://creativecommons.org/ns#"
   xmlns:rdf="http://www.w3.org/1999/02/22-rdf-syntax-ns#"
   xmlns:svg="http://www.w3.org/2000/svg"
   xmlns="http://www.w3.org/2000/svg"
   xmlns:sodipodi="http://sodipodi.sourceforge.net/DTD/sodipodi-0.dtd"
   xmlns:inkscape="http://www.inkscape.org/namespaces/inkscape"
   width="52.679688"
   height="45.126961"
   viewBox="0 0 13.938167 11.939842"
   version="1.1"
   id="svg6233"
   inkscape:version="0.92.4 5da689c313, 2019-01-14"
   sodipodi:docname="market-icon.svg">
  <defs
     id="defs6227" />
  <sodipodi:namedview
     id="base"
     pagecolor="#ffffff"
     bordercolor="#666666"
     borderopacity="1.0"
     inkscape:pageopacity="0.0"
     inkscape:pageshadow="2"
     inkscape:zoom="11.313708"
     inkscape:cx="27.825846"
     inkscape:cy="25.224815"
     inkscape:document-units="px"
     inkscape:current-layer="layer1"
     showgrid="false"
     units="px"
     showborder="false"
     inkscape:window-width="1366"
     inkscape:window-height="686"
     inkscape:window-x="0"
     inkscape:window-y="0"
     inkscape:window-maximized="1" />
  <metadata
     id="metadata6230">
    <rdf:RDF>
      <cc:Work
         rdf:about="">
        <dc:format>image/svg+xml</dc:format>
        <dc:type
           rdf:resource="http://purl.org/dc/dcmitype/StillImage" />
        <dc:title></dc:title>
      </cc:Work>
    </rdf:RDF>
  </metadata>
  <g
     inkscape:label="Camada 1"
     inkscape:groupmode="layer"
     id="layer1"
     transform="translate(22.076688,-94.724965)">
    <path
       style="opacity:1;fill:#c1ddfa;fill-opacity:1;fill-rule:evenodd;stroke:none;stroke-width:70.28226471;stroke-linecap:round;stroke-linejoin:miter;stroke-miterlimit:4;stroke-dasharray:none;stroke-dashoffset:0;stroke-opacity:1;paint-order:normal"
       d="m -57.099609,358.01562 c -7.273516,0 -15.58048,0.51674 -20.625,4.41016 -5.044517,3.89342 -5.714844,10.30612 -5.714844,15.91992 0,4.24895 0.389727,8.95253 2.763672,12.67774 -0.620407,1.43465 -1.376757,3.35014 -1.615235,4.76172 -0.414315,2.45227 0.191407,7.35742 0.191407,7.35742 0,0 -0.417564,-3.63402 2.572265,-6.36719 0.862522,-0.78846 1.79614,-1.39717 2.69336,-1.88672 5.0944,3.3218 12.872041,3.78516 19.734375,3.78516 7.273511,0 15.580484,-0.51675 20.625,-4.41016 5.044513,-3.89344 5.714841,-10.3042 5.714843,-15.91797 2e-6,-5.6138 -0.670326,-12.0265 -5.714843,-15.91992 -5.044516,-3.89342 -13.351485,-4.41016 -20.625,-4.41016 z"
       transform="scale(0.26458333)"
       id="path6823"
       inkscape:connector-curvature="0" />
    <path
       inkscape:connector-curvature="0"
       style="opacity:1;fill:#f9f9f9;fill-opacity:1;fill-rule:evenodd;stroke:none;stroke-width:15.87010479;stroke-linecap:round;stroke-linejoin:miter;stroke-miterlimit:4;stroke-dasharray:none;stroke-dashoffset:0;stroke-opacity:1;paint-order:normal"
       d="m -13.1439,97.021192 -2.152324,1.567347 -1.091406,0.794782 h -2.000911 v 1.544609 h 0.473873 v 2.64532 h 0.843876 v -2.64532 h 0.683162 l 1.091406,0.7953 2.152324,1.56735 v -3.13469 z"
       id="rect6853" />
    <rect
       style="opacity:1;fill:#da1945;fill-opacity:1;fill-rule:evenodd;stroke:none;stroke-width:13.14325333;stroke-linecap:round;stroke-linejoin:miter;stroke-miterlimit:4;stroke-dasharray:none;stroke-dashoffset:0;stroke-opacity:1;paint-order:normal"
       id="rect6833"
       width="1.3342174"
       height="1.8257713"
       x="-18.16003"
       y="99.242851" />
    <path
       style="opacity:1;fill:#da1945;fill-opacity:1;fill-rule:evenodd;stroke:none;stroke-width:19.72373199;stroke-linecap:round;stroke-linejoin:miter;stroke-miterlimit:4;stroke-dasharray:none;stroke-dashoffset:0;stroke-opacity:1;paint-order:normal"
       d="m -13.503563,97.228055 c 0,0 -0.0038,-0.586302 0.468492,-0.586302 0.472308,0 0.46849,0.586302 0.46849,0.586302 v 2.927405 2.92743 c 0,0 7.43e-4,0.6068 -0.46849,0.6068 -0.469227,0 -0.468492,-0.6068 -0.468492,-0.6068 v -2.92743 z"
       id="rect6840"
       inkscape:connector-curvature="0"
       sodipodi:nodetypes="czccczccc" />
  </g>
</svg>
