<?xml version="1.0" encoding="UTF-8" standalone="no"?>
<!-- Created with Inkscape (http://www.inkscape.org/) -->

<svg
   xmlns:dc="http://purl.org/dc/elements/1.1/"
   xmlns:cc="http://creativecommons.org/ns#"
   xmlns:rdf="http://www.w3.org/1999/02/22-rdf-syntax-ns#"
   xmlns:svg="http://www.w3.org/2000/svg"
   xmlns="http://www.w3.org/2000/svg"
   xmlns:xlink="http://www.w3.org/1999/xlink"
   xmlns:sodipodi="http://sodipodi.sourceforge.net/DTD/sodipodi-0.dtd"
   xmlns:inkscape="http://www.inkscape.org/namespaces/inkscape"
   width="66.145836mm"
   height="42.661766mm"
   viewBox="0 0 66.145836 42.661766"
   version="1.1"
   id="svg3880"
   inkscape:version="0.92.4 5da689c313, 2019-01-14"
   sodipodi:docname="mulher.svg">
  <defs
     id="defs3874">
    <linearGradient
       inkscape:collect="always"
       xlink:href="#linearGradient2117"
       id="linearGradient2119"
       x1="234.79956"
       y1="111.81779"
       x2="352.43222"
       y2="57.262337"
       gradientUnits="userSpaceOnUse"
       gradientTransform="translate(-206.49337,1.4632747)" />
    <linearGradient
       inkscape:collect="always"
       id="linearGradient2117">
      <stop
         style="stop-color:#4ccfd8;stop-opacity:1;"
         offset="0"
         id="stop2113" />
      <stop
         style="stop-color:#27cfbe;stop-opacity:1"
         offset="1"
         id="stop2115" />
    </linearGradient>
    <linearGradient
       inkscape:collect="always"
       xlink:href="#linearGradient2117"
       id="linearGradient2143"
       x1="123.81821"
       y1="98.123535"
       x2="141.86206"
       y2="98.123535"
       gradientUnits="userSpaceOnUse" />
    <linearGradient
       inkscape:collect="always"
       xlink:href="#linearGradient1579-0-6"
       id="linearGradient2151"
       x1="123.81821"
       y1="100.45679"
       x2="141.86206"
       y2="100.45679"
       gradientUnits="userSpaceOnUse" />
    <linearGradient
       inkscape:collect="always"
       id="linearGradient1579-0-6">
      <stop
         style="stop-color:#ff5c79;stop-opacity:1;"
         offset="0"
         id="stop1575" />
      <stop
         style="stop-color:#ff5caf;stop-opacity:1"
         offset="1"
         id="stop1577" />
    </linearGradient>
    <linearGradient
       inkscape:collect="always"
       xlink:href="#linearGradient2117"
       id="linearGradient2135"
       x1="154.30611"
       y1="98.123535"
       x2="172.34996"
       y2="98.123535"
       gradientUnits="userSpaceOnUse"
       gradientTransform="translate(-54.995411)" />
    <linearGradient
       inkscape:collect="always"
       xlink:href="#linearGradient1579-0-6"
       id="linearGradient2159"
       x1="154.30611"
       y1="106.0566"
       x2="172.34996"
       y2="106.0566"
       gradientUnits="userSpaceOnUse"
       gradientTransform="translate(-54.995411)" />
    <linearGradient
       inkscape:collect="always"
       xlink:href="#linearGradient2117"
       id="linearGradient2165"
       gradientUnits="userSpaceOnUse"
       gradientTransform="translate(-83.593025)"
       x1="154.30611"
       y1="98.123535"
       x2="172.34996"
       y2="98.123535" />
    <linearGradient
       inkscape:collect="always"
       xlink:href="#linearGradient1579-0-6"
       id="linearGradient2167"
       gradientUnits="userSpaceOnUse"
       gradientTransform="translate(-83.593025)"
       x1="154.30611"
       y1="106.0566"
       x2="172.34996"
       y2="106.0566" />
    <linearGradient
       inkscape:collect="always"
       xlink:href="#linearGradient1747"
       id="linearGradient2674"
       gradientUnits="userSpaceOnUse"
       gradientTransform="matrix(0.45215817,0,0,0.45215817,-237.02464,-324.03974)"
       x1="207.48618"
       y1="114.5586"
       x2="286.29083"
       y2="114.5586"
       spreadMethod="pad" />
    <linearGradient
       id="linearGradient1747"
       inkscape:collect="always">
      <stop
         id="stop1751"
         offset="0"
         style="stop-color:#ff5c79;stop-opacity:1;" />
      <stop
         id="stop1753"
         offset="1"
         style="stop-color:#ffaeb0;stop-opacity:1" />
    </linearGradient>
    <linearGradient
       inkscape:collect="always"
       xlink:href="#linearGradient1747"
       id="linearGradient1762"
       gradientUnits="userSpaceOnUse"
       x1="207.48618"
       y1="114.5586"
       x2="286.29083"
       y2="114.5586"
       spreadMethod="pad"
       gradientTransform="matrix(0.31972411,0.31972411,-0.31972411,0.31972411,-237.02466,-324.03974)" />
    <linearGradient
       inkscape:collect="always"
       xlink:href="#linearGradient1579-0-6"
       id="linearGradient1585"
       gradientUnits="userSpaceOnUse"
       x1="230.25102"
       y1="69.092735"
       x2="253.80858"
       y2="69.092735"
       gradientTransform="matrix(0.22471738,0,0,0.19503725,98.48766,-299.35874)" />
    <linearGradient
       inkscape:collect="always"
       xlink:href="#linearGradient1579-0-6"
       id="linearGradient1581"
       x1="230.25102"
       y1="69.092735"
       x2="253.80858"
       y2="69.092735"
       gradientUnits="userSpaceOnUse"
       gradientTransform="matrix(0.45215817,0,0,0.45215817,-237.02464,-324.03974)" />
    <filter
       inkscape:collect="always"
       style="color-interpolation-filters:sRGB"
       id="filter1287"
       x="-0.090875641"
       width="1.1817513"
       y="-0.068488814"
       height="1.1369776">
      <feGaussianBlur
         inkscape:collect="always"
         stdDeviation="1.1197503"
         id="feGaussianBlur1289" />
    </filter>
    <filter
       inkscape:collect="always"
       style="color-interpolation-filters:sRGB"
       id="filter1751"
       x="-0.083725736"
       width="1.1674515"
       y="-0.17280895"
       height="1.3456179">
      <feGaussianBlur
         inkscape:collect="always"
         stdDeviation="1.4285432"
         id="feGaussianBlur1753" />
    </filter>
    <linearGradient
       inkscape:collect="always"
       xlink:href="#linearGradient1954"
       id="linearGradient1956"
       x1="881.55817"
       y1="462.81586"
       x2="864.43988"
       y2="462.81586"
       gradientUnits="userSpaceOnUse"
       gradientTransform="matrix(0.11963352,0,0,0.11963352,-237.02464,-324.03974)" />
    <linearGradient
       inkscape:collect="always"
       id="linearGradient1954">
      <stop
         style="stop-color:#ff5c79;stop-opacity:1;"
         offset="0"
         id="stop1950" />
      <stop
         style="stop-color:#ff5c79;stop-opacity:0;"
         offset="1"
         id="stop1952" />
    </linearGradient>
    <linearGradient
       inkscape:collect="always"
       xlink:href="#linearGradient1954"
       id="linearGradient1977"
       gradientUnits="userSpaceOnUse"
       x1="1006.9357"
       y1="404.3175"
       x2="971.81256"
       y2="417.41949"
       gradientTransform="matrix(0.11963352,0,0,0.11963352,-237.02464,-324.03974)" />
    <linearGradient
       inkscape:collect="always"
       xlink:href="#linearGradient1747"
       id="linearGradient4600"
       gradientUnits="userSpaceOnUse"
       gradientTransform="matrix(0.45215817,0,0,0.45215817,-237.02464,-324.03974)"
       x1="207.48618"
       y1="114.5586"
       x2="286.29083"
       y2="114.5586"
       spreadMethod="pad" />
  </defs>
  <sodipodi:namedview
     id="base"
     pagecolor="#ffffff"
     bordercolor="#666666"
     borderopacity="1.0"
     inkscape:pageopacity="0.0"
     inkscape:pageshadow="2"
     inkscape:zoom="0.35"
     inkscape:cx="-337.85713"
     inkscape:cy="-147.95075"
     inkscape:document-units="mm"
     inkscape:current-layer="layer1"
     showgrid="false"
     inkscape:window-width="1366"
     inkscape:window-height="698"
     inkscape:window-x="0"
     inkscape:window-y="0"
     inkscape:window-maximized="1" />
  <metadata
     id="metadata3877">
    <rdf:RDF>
      <cc:Work
         rdf:about="">
        <dc:format>image/svg+xml</dc:format>
        <dc:type
           rdf:resource="http://purl.org/dc/dcmitype/StillImage" />
        <dc:title></dc:title>
      </cc:Work>
    </rdf:RDF>
  </metadata>
  <g
     inkscape:label="Camada 1"
     inkscape:groupmode="layer"
     id="layer1"
     transform="translate(-54.617556,-67.026262)">
    <g
       id="g2744"
       transform="translate(197.82564,368.99976)">
      <g
         transform="matrix(0.45215817,0,0,0.45215817,-160.07987,-324.412)"
         id="g2246">
        <g
           id="g2191"
           transform="translate(24.936366,-2.6397797)">
          <path
             inkscape:connector-curvature="0"
             id="path2049"
             d="m 31.246907,52.265118 c -1.86,0 -3.38067,1.52068 -3.38067,3.38067 v 21.81624 45.938282 c 0,1.86 1.52067,3.38067 3.38067,3.38067 H 144.31754 c 1.85999,0 3.38118,-1.52049 3.38118,-3.38067 V 77.462028 55.645788 c 0,-1.86017 -1.52119,-3.38067 -3.38118,-3.38067 z m -1.89859,20.21943 H 146.21664 v 4.97748 45.938282 c 0,1.06471 -0.83422,1.89859 -1.8991,1.89859 H 31.246907 c -1.06489,0 -1.89859,-0.8337 -1.89859,-1.89859 V 77.462028 Z"
             style="color:#000000;font-style:normal;font-variant:normal;font-weight:normal;font-stretch:normal;font-size:medium;line-height:normal;font-family:sans-serif;font-variant-ligatures:normal;font-variant-position:normal;font-variant-caps:normal;font-variant-numeric:normal;font-variant-alternates:normal;font-feature-settings:normal;text-indent:0;text-align:start;text-decoration:none;text-decoration-line:none;text-decoration-style:solid;text-decoration-color:#000000;letter-spacing:normal;word-spacing:normal;text-transform:none;writing-mode:lr-tb;direction:ltr;text-orientation:mixed;dominant-baseline:auto;baseline-shift:baseline;text-anchor:start;white-space:normal;shape-padding:0;clip-rule:nonzero;display:inline;overflow:visible;visibility:visible;opacity:1;isolation:auto;mix-blend-mode:normal;color-interpolation:sRGB;color-interpolation-filters:linearRGB;solid-color:#000000;solid-opacity:1;vector-effect:none;fill:url(#linearGradient2119);fill-opacity:1;fill-rule:evenodd;stroke:none;stroke-width:1.48166668;stroke-linecap:butt;stroke-linejoin:round;stroke-miterlimit:4;stroke-dasharray:none;stroke-dashoffset:0;stroke-opacity:1;paint-order:stroke fill markers;color-rendering:auto;image-rendering:auto;shape-rendering:auto;text-rendering:auto;enable-background:accumulate" />
          <g
             transform="translate(-3.1395952,0.62220205)"
             id="g2179">
            <rect
               ry="2.6397798"
               rx="2.6397798"
               y="74.484436"
               x="123.81821"
               height="47.278202"
               width="18.043854"
               id="rect2125"
               style="opacity:0.3;fill:url(#linearGradient2143);fill-opacity:1;fill-rule:evenodd;stroke:none;stroke-width:1.48166668;stroke-linecap:butt;stroke-linejoin:round;stroke-miterlimit:4;stroke-dasharray:none;stroke-dashoffset:0;stroke-opacity:1;paint-order:stroke fill markers" />
            <rect
               style="opacity:1;fill:url(#linearGradient2151);fill-opacity:1;fill-rule:evenodd;stroke:none;stroke-width:1.48166668;stroke-linecap:butt;stroke-linejoin:round;stroke-miterlimit:4;stroke-dasharray:none;stroke-dashoffset:0;stroke-opacity:1;paint-order:stroke fill markers"
               id="rect2121"
               width="18.043858"
               height="42.611694"
               x="123.81821"
               y="79.15094"
               rx="2.6397798"
               ry="2.6397798" />
          </g>
          <g
             transform="translate(-2.8748336,0.62220205)"
             id="g2175">
            <rect
               style="opacity:0.3;fill:url(#linearGradient2135);fill-opacity:1;fill-rule:evenodd;stroke:none;stroke-width:1.48166668;stroke-linecap:butt;stroke-linejoin:round;stroke-miterlimit:4;stroke-dasharray:none;stroke-dashoffset:0;stroke-opacity:1;paint-order:stroke fill markers"
               id="rect2127"
               width="18.043854"
               height="47.278202"
               x="99.310692"
               y="74.484436"
               rx="2.6397798"
               ry="2.6397798" />
            <rect
               ry="2.6397798"
               rx="2.6397798"
               y="90.350571"
               x="99.310692"
               height="31.412066"
               width="18.043854"
               id="rect2123"
               style="opacity:1;fill:url(#linearGradient2159);fill-opacity:1;fill-rule:evenodd;stroke:none;stroke-width:1.48166668;stroke-linecap:butt;stroke-linejoin:round;stroke-miterlimit:4;stroke-dasharray:none;stroke-dashoffset:0;stroke-opacity:1;paint-order:stroke fill markers" />
          </g>
          <g
             transform="translate(1.4800193,0.62220205)"
             id="g2171">
            <rect
               ry="2.6397798"
               rx="2.6397798"
               y="74.484436"
               x="70.713081"
               height="47.278202"
               width="18.043854"
               id="rect2161"
               style="opacity:0.3;fill:url(#linearGradient2165);fill-opacity:1;fill-rule:evenodd;stroke:none;stroke-width:1.48166668;stroke-linecap:butt;stroke-linejoin:round;stroke-miterlimit:4;stroke-dasharray:none;stroke-dashoffset:0;stroke-opacity:1;paint-order:stroke fill markers" />
            <rect
               style="opacity:1;fill:url(#linearGradient2167);fill-opacity:1;fill-rule:evenodd;stroke:none;stroke-width:1.48166668;stroke-linecap:butt;stroke-linejoin:round;stroke-miterlimit:4;stroke-dasharray:none;stroke-dashoffset:0;stroke-opacity:1;paint-order:stroke fill markers"
               id="rect2163"
               width="18.043854"
               height="26.132504"
               x="70.713081"
               y="95.630127"
               rx="2.6397798"
               ry="2.6397798" />
          </g>
        </g>
        <path
           style="fill:none;stroke:#ff315f;stroke-width:2.64583325;stroke-linecap:butt;stroke-linejoin:miter;stroke-miterlimit:4;stroke-dasharray:none;stroke-opacity:1"
           d="m 81.854171,102.53373 c 0,0 33.891239,2.73843 58.369839,-8.12793 27.57488,-12.240839 39.76409,-38.635144 39.76409,-38.635144"
           id="path2195"
           inkscape:connector-curvature="0"
           sodipodi:nodetypes="csc" />
        <g
           id="g2229"
           transform="rotate(-15,110.58238,64.740906)"
           style="stroke:#ff315f;stroke-opacity:1">
          <path
             inkscape:connector-curvature="0"
             id="path2213"
             d="M 180.82188,72.097194 V 79.79655"
             style="fill:#27cfbe;fill-opacity:1;stroke:#ff315f;stroke-width:2.64583325;stroke-linecap:butt;stroke-linejoin:miter;stroke-miterlimit:4;stroke-dasharray:none;stroke-opacity:1" />
          <path
             style="fill:#27cfbe;fill-opacity:1;stroke:#ff315f;stroke-width:2.64583325;stroke-linecap:butt;stroke-linejoin:miter;stroke-miterlimit:4;stroke-dasharray:none;stroke-opacity:1"
             d="m 174.44544,73.420111 h 7.69936"
             id="path2223"
             inkscape:connector-curvature="0" />
        </g>
      </g>
      <path
         style="opacity:0.98999999;fill:url(#linearGradient4600);fill-opacity:1;fill-rule:evenodd;stroke:none;stroke-width:0.15629677;stroke-linecap:round;stroke-linejoin:round;stroke-miterlimit:4;stroke-dasharray:none;stroke-opacity:1;paint-order:stroke fill markers"
         d="m -120.68518,-281.73492 c 1.01672,3.89602 0.94511,1.71136 -0.11062,14.58745 -0.17687,2.15769 0.61016,6.46609 0.61016,6.46609 0,0 -6.55855,-2.60216 -14.65747,0.21117 0,0 1.60744,-3.7273 0.95481,-8.53611 -1.041,-7.67065 -1.44459,-11.95113 0.21814,-13.72718 2.24261,-2.02392 12.01717,-1.61122 12.985,0.99858 z"
         id="path1384"
         inkscape:connector-curvature="0"
         sodipodi:nodetypes="csccscc" />
      <path
         sodipodi:nodetypes="ssscasscsss"
         inkscape:connector-curvature="0"
         id="rect1601"
         d="m -132.72839,-282.61529 2.38122,2.3812 c 0.29805,0.29807 0.29805,0.77797 0,1.07604 l -8.8042,6.96404 c 0,0 1.13702,1.59533 1.61935,2.44586 1.10825,1.95416 1.79584,4.08593 2.91301,6.07758 0.20618,0.36765 -1.17169,2.3935 -2.0145,1.73701 -1.54939,-1.20688 -4.88655,-6.2387 -4.88655,-6.2387 0,0 -1.96537,-2.89116 -1.65473,-4.43964 0.89868,-4.47962 9.37038,-10.00339 9.37038,-10.00339 0.28817,-0.30761 0.77797,-0.29805 1.07602,0 z"
         style="opacity:0.98999999;fill:url(#linearGradient1762);fill-opacity:1;fill-rule:evenodd;stroke:none;stroke-width:0.18094037;stroke-linecap:round;stroke-linejoin:round;stroke-miterlimit:4;stroke-dasharray:0.36188074, 0.18094037;stroke-dashoffset:0;stroke-opacity:1;paint-order:stroke fill markers" />
      <path
         sodipodi:nodetypes="ssscssccass"
         inkscape:connector-curvature="0"
         id="rect1601-3"
         d="m -124.13949,-279.41252 1.79606,-2.84858 c 0.2248,-0.35656 0.76942,-0.55289 1.04941,-0.23781 l 7.00842,7.88639 c 0,0 0.84376,-1.51034 1.53015,-2.36852 1.25953,-1.5748 3.23512,-5.43901 3.23512,-5.43901 0.31295,-0.28237 2.34231,1.73717 2.34231,1.73717 l -3.25859,7.24298 c 0,0 -1.86307,3.27988 -3.4668,3.34101 -4.32075,0.16469 -9.99829,-8.26421 -9.99829,-8.26421 -0.36368,-0.21307 -0.46262,-0.69286 -0.23779,-1.04942 z"
         style="opacity:0.98999999;fill:url(#linearGradient2674);fill-opacity:1;fill-rule:evenodd;stroke:none;stroke-width:0.18094037;stroke-linecap:round;stroke-linejoin:round;stroke-miterlimit:4;stroke-dasharray:0.36188074, 0.18094037;stroke-dashoffset:0;stroke-opacity:1;paint-order:stroke fill markers" />
      <rect
         transform="rotate(-52.195337)"
         style="opacity:0.98999999;fill:url(#linearGradient1585);fill-opacity:1;fill-rule:evenodd;stroke:none;stroke-width:0.08649628;stroke-linecap:round;stroke-linejoin:round;stroke-miterlimit:4;stroke-dasharray:none;stroke-opacity:1"
         id="rect1583"
         width="5.2937918"
         height="4.5946002"
         x="150.22925"
         y="-288.18024"
         rx="2.6468959"
         ry="2.2973003" />
      <rect
         ry="1.5058023"
         rx="1.5326159"
         y="-203.57288"
         x="367.29926"
         height="3.0116036"
         width="3.065232"
         id="rect1587"
         style="opacity:0.98999999;fill:#ffe4ff;fill-opacity:1;fill-rule:evenodd;stroke:none;stroke-width:0.05328695;stroke-linecap:round;stroke-linejoin:round;stroke-miterlimit:4;stroke-dasharray:none;stroke-opacity:1"
         transform="matrix(0.15924471,-0.98723914,0.94077303,-0.33903703,0,0)" />
      <rect
         ry="5.32587"
         rx="5.32587"
         y="-298.12482"
         x="-132.9147"
         height="10.65174"
         width="10.65174"
         id="rect1291"
         style="opacity:0.98999999;fill:url(#linearGradient1581);fill-opacity:1;fill-rule:evenodd;stroke:none;stroke-width:0.18681458;stroke-linecap:round;stroke-linejoin:round;stroke-miterlimit:4;stroke-dasharray:none;stroke-opacity:1" />
      <path
         sodipodi:nodetypes="ccccc"
         inkscape:connector-curvature="0"
         id="rect919"
         d="m -129.25469,-287.24791 3.24056,-0.10113 0.65631,5.26188 -4.30704,-0.37103 z"
         style="opacity:0.98999999;fill:#f2c1d4;fill-opacity:1;fill-rule:evenodd;stroke:none;stroke-width:0.19595362;stroke-linecap:round;stroke-linejoin:round;stroke-miterlimit:4;stroke-dasharray:none;stroke-opacity:1" />
      <path
         transform="matrix(0.200627,0,0,0.20455268,-152.23502,-310.24583)"
         style="opacity:0.98999999;fill:#110d0f;fill-opacity:0.16818183;fill-rule:evenodd;stroke:none;stroke-width:0.5471915;stroke-linecap:round;stroke-linejoin:round;stroke-miterlimit:4;stroke-dasharray:none;stroke-opacity:1;filter:url(#filter1287)"
         inkscape:transform-center-x="30.038893"
         inkscape:transform-center-y="-7.2323491"
         d="m 138.12887,99.461945 c 0,9.374985 -3.37427,22.263625 -12.14179,22.263625 -9.15639,0 -17.4305,-12.57754 -17.4305,-21.952524 0,-9.374983 4.92977,-17.28601 13.69729,-17.28601 8.76752,0 15.875,7.599926 15.875,16.974909 z"
         id="path1091"
         inkscape:connector-curvature="0"
         sodipodi:nodetypes="sssss" />
      <g
         transform="matrix(0.2683903,0,0,0.2683903,-160.25913,-318.35049)"
         style="fill:#f2c1d4;fill-opacity:1"
         id="g1089">
        <path
           style="opacity:0.98999999;fill:#f2c1d4;fill-opacity:1;fill-rule:evenodd;stroke:none;stroke-width:0.5471915;stroke-linecap:round;stroke-linejoin:round;stroke-miterlimit:4;stroke-dasharray:none;stroke-opacity:1"
           inkscape:transform-center-x="66.434458"
           inkscape:transform-center-y="-15.995176"
           d="m 138.12887,99.461945 c 0,9.374985 -3.37427,22.263625 -12.14179,22.263625 -9.15639,0 -15.34067,-11.36764 -15.34067,-20.74262 0,-9.374988 4.70978,-12.336428 13.4773,-12.336428 8.76752,0 14.00516,1.44044 14.00516,10.815423 z"
           id="path887"
           inkscape:connector-curvature="0"
           sodipodi:nodetypes="sssss" />
      </g>
      <path
         transform="matrix(0.11963352,0,0,0.11963352,-233.08598,-344.94936)"
         sodipodi:nodetypes="ccccsccc"
         inkscape:connector-curvature="0"
         id="path1732"
         d="m 887.60156,421.68555 c -5.75382,0.003 -11.48547,0.61116 -16.88672,2.69336 -6.68077,2.48263 -11.21073,8.88493 -12.39062,15.78125 -0.0838,0.45326 -0.14199,0.91028 -0.21289,1.36523 0,0 9.13164,-10.46418 15.51405,-12.88356 15.07702,-5.71523 25.43517,-6.35863 25.43517,-6.35863 -0.38132,-0.0437 -0.76761,-0.10336 -1.14453,-0.13672 -3.40205,-0.2457 -6.86216,-0.4627 -10.31446,-0.46093 z"
         style="opacity:0.98999999;fill:#110d0f;fill-opacity:0.1;fill-rule:evenodd;stroke:none;stroke-width:0.9265818;stroke-linecap:round;stroke-linejoin:round;stroke-miterlimit:4;stroke-dasharray:none;stroke-opacity:1;filter:url(#filter1751)" />
      <path
         sodipodi:nodetypes="ccccc"
         inkscape:connector-curvature="0"
         id="path1363"
         d="m -129.69056,-290.83403 c 0,0.66844 -0.36898,1.21033 -1.01726,1.21033 -0.64828,0 -1.33036,-0.79237 -1.33036,-1.46083 0,-0.66844 0.52552,-0.95985 1.1738,-0.95985 0.6483,0 1.17382,0.54189 1.17382,1.21035 z"
         style="opacity:0.98999999;fill:#f2c1d4;fill-opacity:1;fill-rule:evenodd;stroke:none;stroke-width:0.1531506;stroke-linecap:round;stroke-linejoin:round;stroke-miterlimit:4;stroke-dasharray:none;stroke-opacity:1;paint-order:stroke fill markers" />
      <path
         sodipodi:nodetypes="ccscaacc"
         inkscape:connector-curvature="0"
         id="path1934"
         d="m -130.97281,-278.66311 -3.70116,2.92775 c 0.14922,1.87026 0.42812,4.0954 0.78556,6.72914 0.65262,4.80881 -0.95472,8.53605 -0.95472,8.53605 1.88312,-0.65414 1.27692,-4.97478 1.92297,-7.46022 0.24644,-0.94804 0.79735,-1.86449 0.74509,-2.84266 -0.0601,-1.12575 -0.92152,-2.11794 -1.20117,-3.1616 -0.27663,-2.0565 0.0287,-2.52937 2.40343,-4.72846 z"
         style="opacity:0.98999999;fill:url(#linearGradient1956);fill-opacity:1;fill-rule:evenodd;stroke:none;stroke-width:0.15629677;stroke-linecap:round;stroke-linejoin:round;stroke-miterlimit:4;stroke-dasharray:none;stroke-opacity:1;paint-order:stroke fill markers" />
      <path
         sodipodi:nodetypes="ccacacc"
         inkscape:connector-curvature="0"
         style="opacity:0.98999999;fill:#f2c1d4;fill-opacity:1;fill-rule:evenodd;stroke:none;stroke-width:0.15629677;stroke-linecap:round;stroke-linejoin:round;stroke-miterlimit:4;stroke-dasharray:none;stroke-opacity:1;paint-order:stroke fill markers"
         d="m -127.90877,-284.03777 c -1.41229,-0.008 -2.82163,0.14426 -4.0406,0.48959 0,0 1.41516,2.22482 2.27858,3.21453 0.96796,1.10954 3.22387,3.01972 3.22387,3.01972 0,0 1.33297,-2.28825 1.90809,-3.47947 0.41821,-0.86619 1.11835,-2.66007 1.11835,-2.66007 -1.32496,-0.36523 -2.90823,-0.57531 -4.48829,-0.5843 z"
         id="rect1371" />
      <path
         inkscape:connector-curvature="0"
         id="path1550"
         d="m -133.6345,-274.32497 h 14.34803"
         style="fill:none;stroke:none;stroke-width:0.1196335px;stroke-linecap:butt;stroke-linejoin:miter;stroke-opacity:1" />
      <path
         sodipodi:nodetypes="cacac"
         inkscape:connector-curvature="0"
         id="path1554"
         d="m -132.12762,-283.46571 c 0,0 1.37378,2.1588 2.20488,3.12577 1.05245,1.22448 3.49375,3.35516 3.49375,3.35516 0,0 1.40226,-2.43203 2.00897,-3.69633 0.41827,-0.87164 1.12144,-2.67483 1.12144,-2.67483"
         style="fill:none;stroke:#ffffff;stroke-width:0.1196335;stroke-linecap:butt;stroke-linejoin:round;stroke-miterlimit:4;stroke-dasharray:0.23926702, 0.11963352;stroke-dashoffset:0;stroke-opacity:1" />
      <path
         style="opacity:0.98999999;fill:#f2c1d4;fill-opacity:1;fill-rule:evenodd;stroke:none;stroke-width:0.08343378;stroke-linecap:round;stroke-linejoin:round;stroke-miterlimit:4;stroke-dasharray:none;stroke-opacity:1"
         d="m -104.94628,-284.44907 c -0.21428,0.63026 -0.61823,1.17207 -0.906,1.76859 -0.16552,0.28746 -0.90025,1.02801 -1.11562,1.39027 -0.99834,1.67922 -2.73171,0.46169 -2.31718,-0.98284 0.21546,-0.75072 0.0206,-1.84688 0.34748,-2.67023 0.18388,-0.48528 0.58011,-0.92544 0.71679,-0.22854 0.0351,0.17934 -0.0797,0.38076 -0.10897,0.67052 -0.0363,0.35767 9e-5,0.76189 0.14303,0.65515 0.31772,-0.22206 0.60931,-0.62663 1.69886,-1.28298 0.76113,-0.45849 0.70107,-2.08277 1.00146,-2.5852 0.31462,-0.097 0.67096,0.14034 0.60174,0.48937 -0.0103,0.59796 0.0442,1.19382 0.10773,1.78744 0.006,0.33669 -0.0908,0.66446 -0.16923,0.98845 z"
         id="path1619"
         inkscape:connector-curvature="0"
         sodipodi:nodetypes="ccsscsscscccc" />
      <path
         sodipodi:nodetypes="ccsscsscscccc"
         inkscape:connector-curvature="0"
         id="path1652"
         d="m -132.42089,-259.40098 c -0.6472,-0.15561 -1.22372,-0.50837 -1.84407,-0.74032 -0.3014,-0.13848 -1.10611,-0.8024 -1.48653,-0.98371 -1.76355,-0.84045 -0.70978,-2.67797 0.76661,-2.3974 0.76732,0.14591 1.84094,-0.14921 2.69083,0.10154 0.50008,0.13869 0.97467,0.49296 0.2932,0.69286 -0.17542,0.0514 -0.38646,-0.0444 -0.67768,-0.0471 -0.35949,-0.004 -0.75869,0.0698 -0.63932,0.20246 0.25021,0.29603 0.67977,0.54938 1.43309,1.5743 0.52623,0.71597 2.13819,0.50748 2.666,0.76065 0.12548,0.30441 -0.0782,0.68099 -0.43222,0.644 -0.59631,0.0454 -1.1848,0.15314 -1.77009,0.27083 -0.33462,0.038 -0.66998,-0.0295 -0.99982,-0.0782 z"
         style="opacity:0.98999999;fill:#f2c1d4;fill-opacity:1;fill-rule:evenodd;stroke:none;stroke-width:0.08343378;stroke-linecap:round;stroke-linejoin:round;stroke-miterlimit:4;stroke-dasharray:none;stroke-opacity:1" />
      <path
         sodipodi:nodetypes="csc"
         inkscape:connector-curvature="0"
         id="path1658"
         d="m -109.50859,-282.06432 c 0,0 -0.22634,0.87959 0.60578,1.51596 0.71015,0.5431 1.48304,0.0755 1.48304,0.0755"
         style="fill:none;stroke:#ffffff;stroke-width:0.1196335;stroke-linecap:butt;stroke-linejoin:round;stroke-miterlimit:4.5999999;stroke-dasharray:0.23926702, 0.11963352;stroke-dashoffset:0;stroke-opacity:1" />
      <path
         style="fill:none;stroke:#ffffff;stroke-width:0.11125813;stroke-linecap:butt;stroke-linejoin:round;stroke-miterlimit:4.5999999;stroke-dasharray:0.22251627, 0.11125814;stroke-dashoffset:0;stroke-opacity:1"
         d="m -134.72207,-263.63032 c 0,0 -0.737,-0.23948 -1.45107,0.17872 -0.62898,0.36835 -0.69746,1.22261 -0.69746,1.22261"
         id="path1660"
         inkscape:connector-curvature="0"
         sodipodi:nodetypes="csc" />
      <path
         sodipodi:nodetypes="csssc"
         inkscape:connector-curvature="0"
         id="path1677"
         d="m -132.07506,-261.38771 c 0,0 0.67907,-0.21007 1.90494,-0.36535 1.18583,-0.15024 2.62394,-0.22409 3.57931,-0.21756 1.51859,0.0103 2.08647,0.0955 3.42675,0.31173 1.87144,0.30185 2.83849,0.75607 2.83849,0.75607"
         style="fill:none;stroke:#fffffe;stroke-width:0.1196335;stroke-linecap:butt;stroke-linejoin:miter;stroke-miterlimit:4;stroke-dasharray:0.23926702, 0.11963352;stroke-dashoffset:0;stroke-opacity:1" />
      <ellipse
         ry="0.42200062"
         rx="0.38683388"
         cy="-275.31815"
         cx="-126.43307"
         id="path1756"
         style="opacity:0.98999999;fill:#ffaeb0;fill-opacity:1;fill-rule:evenodd;stroke:#fffffe;stroke-width:0.1196335;stroke-linecap:butt;stroke-linejoin:round;stroke-miterlimit:4;stroke-dasharray:0.23926702, 0.11963352;stroke-dashoffset:0;stroke-opacity:1;paint-order:stroke fill markers" />
      <ellipse
         style="opacity:0.98999999;fill:#ffaeb0;fill-opacity:1;fill-rule:evenodd;stroke:#fffffe;stroke-width:0.1196335;stroke-linecap:butt;stroke-linejoin:round;stroke-miterlimit:4;stroke-dasharray:0.23926702, 0.11963352;stroke-dashoffset:0;stroke-opacity:1;paint-order:stroke fill markers"
         id="ellipse1758"
         cx="-126.30876"
         cy="-273.00558"
         rx="0.38683388"
         ry="0.42200062" />
      <path
         sodipodi:nodetypes="sscssacss"
         inkscape:connector-curvature="0"
         id="path1958"
         d="m -120.05564,-276.35722 c 0,0.95726 0.0514,-0.32868 -0.17254,2.49728 0,0 2.6698,2.50831 4.04736,3.1875 0,0 0.14694,-2.68435 -0.71432,-2.52723 -2.88119,0.52563 -1.99335,-2.25023 -2.25081,-4.21991 -0.13972,-1.0685 -0.64997,-2.08164 -1.23078,-2.98929 -0.40995,-0.64062 -1.55184,-1.6727 -1.55184,-1.6727 0,0 1.45305,2.02643 1.78422,3.59838 0.0809,0.38357 0.0888,1.06638 0.0888,2.12597 z"
         style="opacity:0.40900005;fill:url(#linearGradient1977);fill-opacity:1;fill-rule:evenodd;stroke:none;stroke-width:0.18094037;stroke-linecap:round;stroke-linejoin:round;stroke-miterlimit:4;stroke-dasharray:0.36188074, 0.18094037;stroke-dashoffset:0;stroke-opacity:1;paint-order:stroke fill markers" />
    </g>
  </g>
</svg>
