<?xml version="1.0" encoding="UTF-8" standalone="no"?>
<!-- Created with Inkscape (http://www.inkscape.org/) -->

<svg
   xmlns:dc="http://purl.org/dc/elements/1.1/"
   xmlns:cc="http://creativecommons.org/ns#"
   xmlns:rdf="http://www.w3.org/1999/02/22-rdf-syntax-ns#"
   xmlns:svg="http://www.w3.org/2000/svg"
   xmlns="http://www.w3.org/2000/svg"
   xmlns:xlink="http://www.w3.org/1999/xlink"
   xmlns:sodipodi="http://sodipodi.sourceforge.net/DTD/sodipodi-0.dtd"
   xmlns:inkscape="http://www.inkscape.org/namespaces/inkscape"
   width="298.74091"
   height="271.69229"
   viewBox="0 0 79.041863 71.885254"
   version="1.1"
   id="svg8"
   inkscape:version="0.92.4 5da689c313, 2019-01-14"
   sodipodi:docname="social.svg">
  <defs
     id="defs2">
    <linearGradient
       inkscape:collect="always"
       id="linearGradient3561">
      <stop
         style="stop-color:#c29a16;stop-opacity:1;"
         offset="0"
         id="stop3557" />
      <stop
         style="stop-color:#c26616;stop-opacity:1"
         offset="1"
         id="stop3559" />
    </linearGradient>
    <linearGradient
       inkscape:collect="always"
       id="linearGradient2598">
      <stop
         style="stop-color:#687fea;stop-opacity:1;"
         offset="0"
         id="stop2594" />
      <stop
         style="stop-color:#162fa0;stop-opacity:0"
         offset="1"
         id="stop2596" />
    </linearGradient>
    <inkscape:perspective
       sodipodi:type="inkscape:persp3d"
       inkscape:vp_x="0 : 148.5 : 1"
       inkscape:vp_y="0 : 1000 : 0"
       inkscape:vp_z="210 : 148.5 : 1"
       inkscape:persp3d-origin="105 : 99 : 1"
       id="perspective874" />
    <linearGradient
       inkscape:collect="always"
       xlink:href="#linearGradient2598"
       id="linearGradient1971"
       gradientUnits="userSpaceOnUse"
       gradientTransform="matrix(3.6733365,-0.88962182,0.88962182,3.6733365,-901.31109,1362.7077)"
       x1="207.48618"
       y1="114.5586"
       x2="286.29083"
       y2="114.5586"
       spreadMethod="pad" />
    <filter
       inkscape:collect="always"
       style="color-interpolation-filters:sRGB"
       id="filter2273"
       x="-0.033127718"
       width="1.0662555"
       y="-0.062072884"
       height="1.1241457">
      <feGaussianBlur
         inkscape:collect="always"
         stdDeviation="0.38722176"
         id="feGaussianBlur2275" />
    </filter>
    <filter
       inkscape:collect="always"
       style="color-interpolation-filters:sRGB"
       id="filter1964"
       x="-0.031986699"
       width="1.0639734"
       y="-0.0073853242"
       height="1.0147706">
      <feGaussianBlur
         inkscape:collect="always"
         stdDeviation="0.11080579"
         id="feGaussianBlur1966" />
    </filter>
    <filter
       inkscape:collect="always"
       style="color-interpolation-filters:sRGB"
       id="filter1897"
       x="-0.52942544"
       width="2.058851"
       y="-0.34477621"
       height="1.6895524">
      <feGaussianBlur
         inkscape:collect="always"
         stdDeviation="2.9741402"
         id="feGaussianBlur1899" />
    </filter>
    <filter
       inkscape:collect="always"
       style="color-interpolation-filters:sRGB"
       id="filter2190"
       x="-0.14798777"
       width="1.2959754"
       y="-0.45387322"
       height="1.9077464">
      <feGaussianBlur
         inkscape:collect="always"
         stdDeviation="1.4830095"
         id="feGaussianBlur2192" />
    </filter>
    <filter
       inkscape:collect="always"
       style="color-interpolation-filters:sRGB"
       id="filter2422"
       x="-0.18160728"
       width="1.3632146"
       y="-0.56445098"
       height="2.128902">
      <feGaussianBlur
         inkscape:collect="always"
         stdDeviation="2.1739049"
         id="feGaussianBlur2424" />
    </filter>
    <linearGradient
       inkscape:collect="always"
       xlink:href="#linearGradient2598"
       id="linearGradient2600"
       x1="4.011631"
       y1="417.08551"
       x2="13.030007"
       y2="417.08551"
       gradientUnits="userSpaceOnUse" />
    <linearGradient
       inkscape:collect="always"
       xlink:href="#linearGradient2598"
       id="linearGradient2635"
       x1="-210.89445"
       y1="151.01363"
       x2="-212.64212"
       y2="144.27783"
       gradientUnits="userSpaceOnUse"
       gradientTransform="matrix(-0.96301133,0,0,0.96299307,-306.13069,11.430644)" />
    <linearGradient
       inkscape:collect="always"
       xlink:href="#linearGradient3561"
       id="linearGradient3563"
       x1="-103.22291"
       y1="120.49393"
       x2="-92.986938"
       y2="120.49393"
       gradientUnits="userSpaceOnUse"
       gradientTransform="matrix(0.96301133,0,0,0.96299307,-4.5844448,4.6222871)" />
  </defs>
  <sodipodi:namedview
     id="base"
     pagecolor="#ffffff"
     bordercolor="#666666"
     borderopacity="1.0"
     inkscape:pageopacity="0.0"
     inkscape:pageshadow="2"
     inkscape:zoom="0.99999999"
     inkscape:cx="119.93217"
     inkscape:cy="118.892"
     inkscape:document-units="px"
     inkscape:current-layer="layer1"
     showgrid="false"
     units="px"
     showborder="true"
     inkscape:object-nodes="true"
     inkscape:object-paths="true"
     inkscape:snap-intersection-paths="true"
     inkscape:window-width="1366"
     inkscape:window-height="686"
     inkscape:window-x="0"
     inkscape:window-y="0"
     inkscape:window-maximized="1"
     inkscape:snap-smooth-nodes="true"
     showguides="true"
     inkscape:snap-nodes="false"
     inkscape:guide-bbox="true" />
  <metadata
     id="metadata5">
    <rdf:RDF>
      <cc:Work
         rdf:about="">
        <dc:format>image/svg+xml</dc:format>
        <dc:type
           rdf:resource="http://purl.org/dc/dcmitype/StillImage" />
        <dc:title></dc:title>
      </cc:Work>
    </rdf:RDF>
  </metadata>
  <g
     inkscape:label="Camada 1"
     inkscape:groupmode="layer"
     id="layer1"
     transform="translate(163.46279,-88.960673)">
    <circle
       style="opacity:1;fill:#e8ebee;fill-opacity:1;fill-rule:evenodd;stroke:none;stroke-width:0.54547596;stroke-linecap:round;stroke-linejoin:miter;stroke-miterlimit:4;stroke-dasharray:none;stroke-dashoffset:0;stroke-opacity:1;paint-order:normal"
       id="path869"
       cx="-150.58458"
       cy="111.67781"
       r="0" />
    <g
       id="g2727"
       transform="matrix(0.96301133,0,0,0.96299307,-4.5844448,4.6222871)"
       style="stroke-width:1.03841925">
      <path
         style="opacity:0.31100003;fill:#026aaf;fill-opacity:1;fill-rule:evenodd;stroke:#026aaf;stroke-width:0.80918962;stroke-linecap:round;stroke-linejoin:miter;stroke-miterlimit:4;stroke-dasharray:none;stroke-dashoffset:0;stroke-opacity:1;paint-order:normal"
         d="m -159.84683,89.350299 c -1.78734,0 -3.22633,1.439527 -3.22633,3.227357 v 33.017204 c 0,1.78784 1.43899,3.22705 3.22633,3.22705 h 54.32896 c 1.78733,0 3.22632,-1.43921 3.22632,-3.22705 V 92.577656 c 0,-1.78783 -1.43899,-3.227357 -3.22632,-3.227357 z m -2.89254,11.020791 h 60.11403 v 25.03994 c 0,1.76794 -1.42297,3.19109 -3.19067,3.19109 h -53.73269 c -1.7677,0 -3.19067,-1.42315 -3.19067,-3.19109 z"
         id="path843"
         inkscape:connector-curvature="0" />
      <path
         inkscape:connector-curvature="0"
         id="path845"
         d="m -162.73911,100.37109 v 25.04015 c 0,1.76794 1.42297,3.19098 3.19067,3.19098 h 53.73243 c 1.7677,0 3.19067,-1.42304 3.19067,-3.19098 v -25.04015 z"
         style="opacity:0.31100003;fill:#e8ebee;fill-opacity:1;fill-rule:evenodd;stroke:none;stroke-width:0.80918962;stroke-linecap:round;stroke-linejoin:miter;stroke-miterlimit:4;stroke-dasharray:none;stroke-dashoffset:0;stroke-opacity:1;paint-order:normal" />
      <path
         inkscape:connector-curvature="0"
         id="rect10"
         d="m -156.57397,93.090706 c -1.78734,0 -3.22633,1.439526 -3.22633,3.227357 v 33.017197 c 0,1.78784 1.43899,3.22706 3.22633,3.22706 h 54.32896 c 1.78733,0 3.226322,-1.43922 3.226322,-3.22706 V 96.318063 c 0,-1.787831 -1.438992,-3.227357 -3.226322,-3.227357 z m -2.89254,11.020794 h 60.114033 v 25.03994 c 0,1.76793 -1.422973,3.19109 -3.190673,3.19109 h -53.73269 c -1.7677,0 -3.19067,-1.42316 -3.19067,-3.19109 z"
         style="opacity:1;fill:#026aaf;fill-opacity:1;fill-rule:evenodd;stroke:#026aaf;stroke-width:0.80918962;stroke-linecap:round;stroke-linejoin:miter;stroke-miterlimit:4;stroke-dasharray:none;stroke-dashoffset:0;stroke-opacity:1;paint-order:normal" />
      <rect
         ry="1.0082861"
         y="96.195335"
         x="-150.07201"
         height="4.1702418"
         width="30.746195"
         id="rect857"
         style="opacity:1;fill:#e8ebee;fill-opacity:1;fill-rule:evenodd;stroke:none;stroke-width:0.80918962;stroke-linecap:round;stroke-linejoin:miter;stroke-miterlimit:4;stroke-dasharray:none;stroke-dashoffset:0;stroke-opacity:1;paint-order:normal" />
      <path
         inkscape:connector-curvature="0"
         id="rect859"
         d="m -125.37996,96.195301 v 4.170209 h 5.04626 c 0.5586,0 1.00816,-0.449553 1.00816,-1.008152 v -2.153897 c 0,-0.558599 -0.44956,-1.00816 -1.00816,-1.00816 z"
         style="opacity:1;fill:#c7ced7;fill-opacity:1;fill-rule:evenodd;stroke:none;stroke-width:0.80918962;stroke-linecap:round;stroke-linejoin:miter;stroke-miterlimit:4;stroke-dasharray:none;stroke-dashoffset:0;stroke-opacity:1;paint-order:normal" />
      <circle
         transform="rotate(-45)"
         r="1.2673322"
         cy="-17.395624"
         cx="-156.01122"
         id="path864"
         style="opacity:1;fill:none;fill-opacity:1;fill-rule:evenodd;stroke:#4f5f71;stroke-width:0.56643271;stroke-linecap:round;stroke-linejoin:miter;stroke-miterlimit:4;stroke-dasharray:none;stroke-dashoffset:0;stroke-opacity:1;paint-order:normal" />
      <path
         inkscape:connector-curvature="0"
         id="path935"
         d="m -121.62423,99.008932 0.79873,0.798733"
         style="fill:none;stroke:#4f5f71;stroke-width:0.56643271;stroke-linecap:round;stroke-linejoin:miter;stroke-miterlimit:4;stroke-dasharray:none;stroke-opacity:1" />
      <rect
         style="opacity:1;fill:#e8ebee;fill-opacity:1;fill-rule:evenodd;stroke:none;stroke-width:0.56643271;stroke-linecap:round;stroke-linejoin:miter;stroke-miterlimit:4;stroke-dasharray:none;stroke-dashoffset:0;stroke-opacity:1;paint-order:normal"
         id="rect950"
         width="4.1702418"
         height="4.1702418"
         x="-156.1324"
         y="96.195335"
         rx="0.36040589"
         ry="0.36040589" />
      <path
         sodipodi:nodetypes="ccczczccccszcccc"
         inkscape:connector-curvature="0"
         id="path954"
         d="m -153.65679,100.39671 v -1.687556 -1.532565 c 0,0 -0.008,-0.257422 0.15019,-0.466597 0.15838,-0.209174 0.44283,-0.228977 0.44283,-0.228977 0,0 0.26087,-0.02939 0.38791,-0.02922 0.12704,2.01e-4 0.37207,0.02922 0.37207,0.02922 v 0.36527 0.282621 l -0.21697,-0.02922 c -0.18292,-0.0018 -0.32554,0.0041 -0.42106,0.118733 -0.0875,0.104825 -0.0678,0.115852 -0.0678,0.399493 v 1.299423 1.464735 l -0.32358,0.007 z"
         style="fill:#026aaf;fill-opacity:1;stroke:none;stroke-width:0.16183792px;stroke-linecap:butt;stroke-linejoin:miter;stroke-opacity:1" />
      <rect
         transform="scale(-1)"
         ry="0"
         rx="0"
         y="-98.433281"
         x="152.48849"
         height="0.64717883"
         width="1.689615"
         id="rect956"
         style="opacity:1;fill:#026aaf;fill-opacity:1;fill-rule:evenodd;stroke:none;stroke-width:0.56643265;stroke-linecap:round;stroke-linejoin:miter;stroke-miterlimit:4;stroke-dasharray:none;stroke-dashoffset:0;stroke-opacity:1;paint-order:normal" />
      <rect
         ry="0.82652009"
         rx="0.82652009"
         y="97.453888"
         x="-118.4229"
         height="1.6530402"
         width="8.099905"
         id="rect853"
         style="opacity:1;fill:#e8ebee;fill-opacity:1;fill-rule:evenodd;stroke:none;stroke-width:0.56643271;stroke-linecap:round;stroke-linejoin:miter;stroke-miterlimit:4;stroke-dasharray:none;stroke-dashoffset:0;stroke-opacity:1;paint-order:normal" />
      <rect
         style="opacity:1;fill:#e8ebee;fill-opacity:1;fill-rule:evenodd;stroke:none;stroke-width:0.56643271;stroke-linecap:round;stroke-linejoin:miter;stroke-miterlimit:4;stroke-dasharray:none;stroke-dashoffset:0;stroke-opacity:1;paint-order:normal"
         id="rect855"
         width="5.0693278"
         height="1.6530402"
         x="-108.9278"
         y="97.453888"
         rx="0.82652009"
         ry="0.82652009" />
      <path
         inkscape:connector-curvature="0"
         id="path840"
         d="m -101.66993,96.951687 a 1.4213112,1.4213112 0 0 0 -0.39604,0.229061 l 0.14143,0.413418 a 1.023344,1.023344 0 0 0 -0.21629,0.373428 l -0.42713,0.08386 a 1.4213112,1.4213112 0 0 0 -0.0203,0.22896 1.4213112,1.4213112 0 0 0 0.0192,0.228742 l 0.42922,0.08427 a 1.023344,1.023344 0 0 0 0.21535,0.373222 l -0.14144,0.413418 a 1.4213112,1.4213112 0 0 0 0.39688,0.228223 l 0.28633,-0.328095 a 1.023344,1.023344 0 0 0 0.21576,0.02356 1.023344,1.023344 0 0 0 0.21556,-0.02421 l 0.28758,0.329562 a 1.4213112,1.4213112 0 0 0 0.39604,-0.22906 l -0.14154,-0.413524 a 1.023344,1.023344 0 0 0 0.21629,-0.373322 l 0.427235,-0.08386 a 1.4213112,1.4213112 0 0 0 0.0202,-0.228954 1.4213112,1.4213112 0 0 0 -0.01905,-0.228748 l -0.429335,-0.08427 a 1.023344,1.023344 0 0 0 -0.21534,-0.373222 l 0.14154,-0.413418 a 1.4213112,1.4213112 0 0 0 -0.39688,-0.228224 l -0.28633,0.328202 a 1.023344,1.023344 0 0 0 -0.21597,-0.02368 1.023344,1.023344 0 0 0 -0.21535,0.02415 z m 0.50292,0.864423 a 0.46429499,0.46429499 0 0 1 0.4643,0.4643 0.46429499,0.46429499 0 0 1 -0.4643,0.464293 0.46429499,0.46429499 0 0 1 -0.46419,-0.464293 0.46429499,0.46429499 0 0 1 0.46419,-0.4643 z"
         style="opacity:1;fill:#e8ebee;fill-opacity:1;fill-rule:evenodd;stroke:none;stroke-width:0.56643271;stroke-linecap:round;stroke-linejoin:miter;stroke-miterlimit:4;stroke-dasharray:none;stroke-dashoffset:0;stroke-opacity:1;paint-order:normal" />
      <path
         id="path854"
         d="m -159.46637,104.11138 v 25.04015 c 0,1.76794 1.42297,3.19097 3.19067,3.19097 h 14.57291 v -28.23112 z"
         style="opacity:1;fill:#d3d3d3;fill-opacity:1;fill-rule:evenodd;stroke:none;stroke-width:0.80918962;stroke-linecap:round;stroke-linejoin:miter;stroke-miterlimit:4;stroke-dasharray:none;stroke-dashoffset:0;stroke-opacity:1;paint-order:normal"
         inkscape:connector-curvature="0" />
      <path
         style="opacity:1;fill:#d3d3d3;fill-opacity:1;fill-rule:evenodd;stroke:none;stroke-width:0.80918962;stroke-linecap:round;stroke-linejoin:miter;stroke-miterlimit:4;stroke-dasharray:none;stroke-dashoffset:0;stroke-opacity:1;paint-order:normal"
         d="m -159.46637,104.11138 v 25.04015 c 0,1.76794 1.42297,3.19097 3.19067,3.19097 h 14.57291 v -28.23112 z"
         id="path860"
         inkscape:connector-curvature="0" />
      <path
         id="path863"
         d="m -159.46637,104.11138 v 25.04015 c 0,1.76794 1.42297,3.19097 3.19067,3.19097 h 14.57291 v -28.23112 z"
         style="opacity:1;fill:#d3d3d3;fill-opacity:1;fill-rule:evenodd;stroke:none;stroke-width:0.80918962;stroke-linecap:round;stroke-linejoin:miter;stroke-miterlimit:4;stroke-dasharray:none;stroke-dashoffset:0;stroke-opacity:1;paint-order:normal"
         inkscape:connector-curvature="0" />
      <path
         id="path841"
         d="m -141.70279,104.11138 v 28.23112 h 39.15952 c 1.76769,0 3.190665,-1.42303 3.190665,-3.19097 v -25.04015 z m -16.72346,27.39677 c 0.0826,0.0754 0.16911,0.14604 0.25934,0.21247 -0.0902,-0.0664 -0.17676,-0.13709 -0.25934,-0.21247 z m 0.46359,0.35097 c 0.11295,0.0704 0.23028,0.13392 0.35219,0.18994 -0.12191,-0.056 -0.23923,-0.1196 -0.35219,-0.18994 z m 0.73603,0.34031 c 0.036,0.0111 0.0725,0.0208 0.10897,0.0307 -0.0365,-0.01 -0.073,-0.0196 -0.10897,-0.0307 z m 0.63527,0.12755 c 0.1039,0.0101 0.20901,0.0155 0.31566,0.0155 -0.10655,0 -0.21185,-0.005 -0.31566,-0.0155 z"
         style="opacity:1;fill:#e8ebee;fill-opacity:1;fill-rule:evenodd;stroke:none;stroke-width:0.80918962;stroke-linecap:round;stroke-linejoin:miter;stroke-miterlimit:4;stroke-dasharray:none;stroke-dashoffset:0;stroke-opacity:1;paint-order:normal"
         inkscape:connector-curvature="0" />
      <ellipse
         ry="5.2936492"
         rx="5.2239342"
         style="opacity:1;fill:#b2bdc7;fill-opacity:1;fill-rule:evenodd;stroke:none;stroke-width:0.56643277;stroke-linecap:round;stroke-linejoin:miter;stroke-miterlimit:4;stroke-dasharray:none;stroke-dashoffset:0;stroke-opacity:1;paint-order:normal"
         id="circle878"
         cx="-150.58458"
         cy="111.67781" />
      <path
         inkscape:connector-curvature="0"
         d="m -150.58557,111.58717 a 3.7602905,2.6589384 0 0 0 -3.75361,2.56609 h 7.5092 a 3.7602905,2.6589384 0 0 0 -3.75559,-2.56609 z m 1.7951,-2.40952 a 1.8455513,1.8455513 0 0 1 -1.84556,1.84555 1.8455513,1.8455513 0 0 1 -1.84555,-1.84555 1.8455513,1.8455513 0 0 1 1.84555,-1.84555 1.8455513,1.8455513 0 0 1 1.84556,1.84555 z"
         style="opacity:1;fill:#d3d3d3;fill-opacity:1;fill-rule:evenodd;stroke:none;stroke-width:0.56643271;stroke-linecap:round;stroke-linejoin:miter;stroke-miterlimit:4;stroke-dasharray:none;stroke-dashoffset:0;stroke-opacity:1;paint-order:normal"
         id="path873" />
      <rect
         ry="0.40332496"
         rx="0.40332496"
         y="119.37782"
         x="-155.16266"
         height="0.80664992"
         width="9.1561499"
         id="rect882"
         style="opacity:1;fill:#e8ebee;fill-opacity:1;fill-rule:evenodd;stroke:none;stroke-width:0.56643277;stroke-linecap:round;stroke-linejoin:miter;stroke-miterlimit:4;stroke-dasharray:none;stroke-dashoffset:0;stroke-opacity:1;paint-order:normal" />
      <rect
         style="opacity:1;fill:#e8ebee;fill-opacity:1;fill-rule:evenodd;stroke:none;stroke-width:0.56643277;stroke-linecap:round;stroke-linejoin:miter;stroke-miterlimit:4;stroke-dasharray:none;stroke-dashoffset:0;stroke-opacity:1;paint-order:normal"
         id="rect884"
         width="8.2569313"
         height="0.80664992"
         x="-154.71304"
         y="120.92899"
         rx="0.40332496"
         ry="0.40332496" />
      <rect
         style="opacity:1;fill:#e8ebee;fill-opacity:1;fill-rule:evenodd;stroke:none;stroke-width:0.56643277;stroke-linecap:round;stroke-linejoin:miter;stroke-miterlimit:4;stroke-dasharray:none;stroke-dashoffset:0;stroke-opacity:1;paint-order:normal"
         id="rect888"
         width="9.1561499"
         height="0.80664992"
         x="-155.16266"
         y="122.48013"
         rx="0.40332496"
         ry="0.40332496" />
      <rect
         ry="1.0130286"
         rx="1.0130286"
         y="106.47774"
         x="-139.14227"
         height="13.554939"
         width="17.301838"
         id="rect890"
         style="opacity:1;fill:#d3d3d3;fill-opacity:1;fill-rule:evenodd;stroke:none;stroke-width:0.56643271;stroke-linecap:round;stroke-linejoin:miter;stroke-miterlimit:4;stroke-dasharray:none;stroke-dashoffset:0;stroke-opacity:1;paint-order:normal" />
      <rect
         style="opacity:1;fill:#d3d3d3;fill-opacity:1;fill-rule:evenodd;stroke:none;stroke-width:0.56643271;stroke-linecap:round;stroke-linejoin:miter;stroke-miterlimit:4;stroke-dasharray:none;stroke-dashoffset:0;stroke-opacity:1;paint-order:normal"
         id="rect892"
         width="17.301838"
         height="13.554939"
         x="-119.04755"
         y="106.47774"
         rx="1.0130286"
         ry="1.0130286" />
      <path
         inkscape:transform-center-y="-2.3806776e-06"
         inkscape:transform-center-x="-1.1114195"
         d="m -128.78185,113.25521 -3.92802,2.26785 v -4.53569 z"
         inkscape:randomized="0"
         inkscape:rounded="0"
         inkscape:flatsided="true"
         sodipodi:arg2="1.0471976"
         sodipodi:arg1="0"
         sodipodi:r2="1.309341"
         sodipodi:r1="2.6186814"
         sodipodi:cy="113.25521"
         sodipodi:cx="-131.40053"
         sodipodi:sides="3"
         id="path894"
         style="opacity:1;fill:#ffffff;fill-opacity:1;fill-rule:evenodd;stroke:none;stroke-width:0.56643271;stroke-linecap:round;stroke-linejoin:miter;stroke-miterlimit:4;stroke-dasharray:none;stroke-dashoffset:0;stroke-opacity:1;paint-order:normal"
         sodipodi:type="star" />
      <rect
         ry="0.40332496"
         rx="0.40332496"
         y="121.55969"
         x="-119.04755"
         height="0.80664992"
         width="16.670193"
         id="rect902"
         style="opacity:1;fill:#d3d3d3;fill-opacity:1;fill-rule:evenodd;stroke:none;stroke-width:0.56643277;stroke-linecap:round;stroke-linejoin:miter;stroke-miterlimit:4;stroke-dasharray:none;stroke-dashoffset:0;stroke-opacity:1;paint-order:normal" />
      <rect
         style="opacity:1;fill:#d3d3d3;fill-opacity:1;fill-rule:evenodd;stroke:none;stroke-width:0.56643277;stroke-linecap:round;stroke-linejoin:miter;stroke-miterlimit:4;stroke-dasharray:none;stroke-dashoffset:0;stroke-opacity:1;paint-order:normal"
         id="rect904"
         width="12.840113"
         height="0.80664992"
         x="-119.04755"
         y="123.59444"
         rx="0.40332496"
         ry="0.40332496" />
      <rect
         ry="0.40332496"
         rx="0.40332496"
         y="125.62919"
         x="-119.04755"
         height="0.80664992"
         width="10.037773"
         id="rect906"
         style="opacity:1;fill:#d3d3d3;fill-opacity:1;fill-rule:evenodd;stroke:none;stroke-width:0.56643277;stroke-linecap:round;stroke-linejoin:miter;stroke-miterlimit:4;stroke-dasharray:none;stroke-dashoffset:0;stroke-opacity:1;paint-order:normal" />
      <rect
         ry="0.40332496"
         rx="0.40332496"
         y="127.66393"
         x="-119.04755"
         height="0.80664992"
         width="12.840113"
         id="rect908"
         style="opacity:1;fill:#d3d3d3;fill-opacity:1;fill-rule:evenodd;stroke:none;stroke-width:0.56643277;stroke-linecap:round;stroke-linejoin:miter;stroke-miterlimit:4;stroke-dasharray:none;stroke-dashoffset:0;stroke-opacity:1;paint-order:normal" />
    </g>
    <g
       id="g2745"
       transform="matrix(0.83749231,0.47538287,-0.47539188,0.83747644,35.954146,79.148603)"
       style="stroke-width:1.03841925">
      <circle
         transform="rotate(-45)"
         r="7.2516203"
         cy="-10.284991"
         cx="-172.80972"
         id="path864-3"
         style="opacity:1;fill:#e3e7fb;fill-opacity:0.58454111;fill-rule:evenodd;stroke:#4f5f71;stroke-width:3.24110389;stroke-linecap:round;stroke-linejoin:miter;stroke-miterlimit:4;stroke-dasharray:none;stroke-dashoffset:0;stroke-opacity:1;paint-order:normal" />
      <path
         inkscape:connector-curvature="0"
         id="path935-6"
         d="m -123.78603,120.60372 4.5703,4.57029"
         style="fill:none;stroke:#4f5f71;stroke-width:3.24110389;stroke-linecap:round;stroke-linejoin:miter;stroke-miterlimit:4;stroke-dasharray:none;stroke-opacity:1" />
    </g>
    <path
       inkscape:connector-curvature="0"
       style="opacity:1;fill:#687fea;fill-opacity:1;fill-rule:evenodd;stroke:none;stroke-width:0.17026922;stroke-linecap:round;stroke-linejoin:round;stroke-miterlimit:4;stroke-dasharray:none;stroke-opacity:1;paint-order:stroke fill markers"
       d="m -120.45005,123.96109 c 0.0221,0.007 0.0423,0.0148 0.0588,0.0254 -0.0168,-0.0103 -0.0367,-0.0189 -0.0588,-0.0254 z m 0.0588,0.0254 c 0.0165,0.0106 0.0306,0.0229 0.0408,0.0379 -0.0102,-0.0149 -0.0239,-0.0273 -0.0408,-0.0379 z m -1.24214,2.11796 c 0.22188,0.28098 0.49388,0.63007 0.84103,1.07539 -0.31512,-0.40447 -0.61574,-0.78951 -0.84103,-1.07539 z m 1.13514,1.45261 c 0.36187,0.46646 0.73495,0.95528 1.12967,1.4755 -0.38376,-0.50554 -0.77143,-1.01344 -1.12967,-1.4755 z m 1.46458,1.91492 c 0.20468,0.27215 0.40307,0.53801 0.59768,0.80219 -0.19302,-0.2618 -0.39331,-0.53061 -0.59768,-0.80219 z m 20.56688,0.56632 c 2.778179,-0.0117 5.380933,0.28911 6.615757,1.13909 0.196107,0.13498 0.354634,0.30628 0.48073,0.51158 0.508839,0.69309 2.547346,3.55347 3.961294,6.68779 l -4.08272,2.35733 -0.420514,-0.65291 c -0.318536,1.70888 -0.663471,3.61894 -0.951507,5.74127 -0.684663,5.04484 3.48194,6.58591 1.533756,8.86647 -3.329592,3.89764 -12.128976,3.74412 -15.377376,-0.22145 -1.45742,-1.77919 1.61607,-4.53998 1.26154,-6.78335 -0.94148,-5.95734 -1.78434,-9.8633 -2.23345,-12.40069 -0.82963,-0.0323 -1.68584,-0.0688 -2.52209,-0.1065 v -4.68777 c 1.70942,-0.16633 4.20992,-0.31985 5.49505,0.0319 1.81176,-0.27561 4.07872,-0.47365 6.23953,-0.48271 z m -19.89455,0.3364 c 0.22484,0.30619 0.4405,0.60357 0.636,0.88033 -0.19438,-0.27515 -0.4094,-0.572 -0.636,-0.88033 z m 8.15947,0.11446 c -0.46856,0.0456 -0.84917,0.09 -1.15753,0.12739 0.31735,-0.0394 0.62911,-0.076 1.15753,-0.12739 z m -0.83108,4.64796 c 0.26767,0.0127 0.52652,0.0259 0.80121,0.0383 -0.27938,-0.0126 -0.52954,-0.0252 -0.80121,-0.0383 z m 23.626428,3.24561 c 0.127208,0.28217 0.248348,0.56573 0.363784,0.85096 -0.115599,-0.28473 -0.236726,-0.56912 -0.363784,-0.85096 z m 0.395134,0.92661 c 0.100723,0.25161 0.194111,0.50313 0.283163,0.75492 -0.0894,-0.25157 -0.182174,-0.50349 -0.283163,-0.75492 z m 0.356815,0.95895 c 0.02336,0.0687 0.04584,0.13696 0.06818,0.20553 -0.02242,-0.0685 -0.04473,-0.13692 -0.06818,-0.20553 z m 0.275201,0.88829 c 0.02044,0.0745 0.03923,0.14876 0.05822,0.22294 -0.01906,-0.0742 -0.0377,-0.14845 -0.05822,-0.22294 z"
       id="path1755" />
    <path
       inkscape:connector-curvature="0"
       style="opacity:1;fill:#b18a86;fill-opacity:1;fill-rule:evenodd;stroke:none;stroke-width:0.09089252;stroke-linecap:round;stroke-linejoin:round;stroke-miterlimit:4;stroke-dasharray:none;stroke-opacity:1"
       d="m -122.47897,122.45918 c -0.25212,0.009 -0.46511,0.061 -0.59918,0.10351 l 0.46282,1.7074 c -0.0858,0.14863 -0.47733,0.0785 -0.83306,-0.0468 -0.2882,-0.10151 -0.46533,-0.26802 -0.6569,-0.27669 -0.7443,-0.0327 -0.39368,0.48001 0.0558,0.78727 0.75861,0.53731 0.90557,0.28219 1.61785,0.68724 0.15026,0.0855 0.30392,0.1392 0.45685,0.17368 0.41889,0.52706 2.86731,3.617 4.31064,5.66016 1.01342,1.43458 2.66665,3.65055 4.41962,3.76116 0.89922,0.0567 1.98194,0.11019 3.10435,0.16075 v -4.68778 c -1.03996,0.10125 -1.78856,0.20702 -1.78856,0.20702 0,0 -1.55167,-1.57335 -2.53253,-2.17917 -2.1245,-1.31221 -5.82798,-4.4927 -5.82798,-4.4927 -0.0204,-0.0298 -0.0556,-0.0501 -0.10003,-0.0632 -0.0894,-0.21513 -0.20088,-0.53344 -0.42798,-0.75542 -0.28279,-0.32621 -0.55101,-0.46776 -0.82958,-0.59219 -0.28908,-0.12912 -0.57996,-0.16329 -0.83207,-0.15427 z"
       id="path1619-9" />
    <path
       style="opacity:1;fill:#b18a86;fill-opacity:1;fill-rule:evenodd;stroke:none;stroke-width:0.21347128;stroke-linecap:round;stroke-linejoin:round;stroke-miterlimit:4;stroke-dasharray:none;stroke-opacity:1"
       d="m -100.77043,126.58275 3.399741,0.10614 0.346375,4.04682 -1.032502,0.94791 -0.175759,0.14143 -2.354005,0.20271 -0.70083,-1.30039 z"
       id="rect919-8"
       inkscape:connector-curvature="0" />
    <path
       style="opacity:1;fill:#b18a86;fill-opacity:1;fill-rule:evenodd;stroke:none;stroke-width:0.17622596;stroke-linecap:round;stroke-linejoin:round;stroke-miterlimit:4;stroke-dasharray:none;stroke-opacity:1;paint-order:stroke fill markers"
       d="m -98.777254,130.02017 c 0.815044,-0.005 1.627961,0.0427 2.410128,0.14425 l -1.664969,1.5533 -1.944561,1.59011 -1.608184,-3.10038 c 0.9103,-0.13615 1.849187,-0.18173 2.807586,-0.18728 z"
       id="path1805"
       inkscape:connector-curvature="0"
       sodipodi:nodetypes="cccccc" />
    <path
       style="opacity:1;fill:#252227;fill-opacity:0.51121072;fill-rule:evenodd;stroke:none;stroke-width:0.05192097;stroke-linecap:butt;stroke-linejoin:round;stroke-miterlimit:4;stroke-dasharray:none;stroke-dashoffset:0;stroke-opacity:1;paint-order:stroke fill markers;filter:url(#filter2422)"
       d="m -120.58594,1314.3086 -0.58398,6.0019 a 37.500002,37.500002 0 0 0 28.878904,-0.7636 l -0.576172,-4.6992 a 45.750003,45.750003 0 0 1 -27.718752,-0.5391 z"
       transform="matrix(-0.12511725,-0.00989238,-0.00989256,0.12511488,-99.418196,-38.195677)"
       id="path1582"
       inkscape:connector-curvature="0" />
    <path
       style="opacity:1;fill:#b18a86;fill-opacity:1;fill-rule:evenodd;stroke:none;stroke-width:0.15998983;stroke-linecap:round;stroke-linejoin:round;stroke-miterlimit:4;stroke-dasharray:none;stroke-opacity:1"
       inkscape:transform-center-x="63.977136"
       inkscape:transform-center-y="-15.403243"
       d="m -102.7939,121.87048 c 0,2.63965 0.95009,6.26862 3.418751,6.26862 2.578154,0 4.319452,-3.20071 4.319452,-5.84036 0,-2.63965 -1.326124,-3.22247 -3.794785,-3.22247 -2.468658,0 -3.943418,0.15456 -3.943418,2.79421 z"
       id="path887-2-4"
       inkscape:connector-curvature="0"
       sodipodi:nodetypes="sssss" />
    <path
       inkscape:connector-curvature="0"
       style="opacity:1;fill:#434146;fill-opacity:0.39461885;fill-rule:evenodd;stroke:none;stroke-width:0.02557522;stroke-linecap:butt;stroke-linejoin:round;stroke-miterlimit:4;stroke-dasharray:none;stroke-dashoffset:0;stroke-opacity:1;paint-order:stroke fill markers;filter:url(#filter2190)"
       d="m -821.07422,423.28711 c -0.57452,0.16025 -1.11419,0.35059 -1.62305,0.57031 a 18.471743,18.471743 0 0 0 4.03711,3.91992 18.471743,18.471743 0 0 0 20.01368,0.7793 c -0.20706,-0.68199 -0.47857,-1.27063 -0.78711,-1.80859 a 22.535526,22.535526 0 0 1 -20.66993,-2.69727 22.535526,22.535526 0 0 1 -0.9707,-0.76367 z"
       transform="matrix(-0.25479674,0,0,0.25479191,-306.13069,11.430644)"
       id="path1377" />
    <path
       style="opacity:1;fill:#434146;fill-opacity:0.39607843;fill-rule:evenodd;stroke:none;stroke-width:0.05192097;stroke-linecap:butt;stroke-linejoin:round;stroke-miterlimit:4;stroke-dasharray:none;stroke-dashoffset:0;stroke-opacity:1;paint-order:stroke fill markers;filter:url(#filter1897)"
       d="m -136,1271.7969 v 8.3027 a 45.750003,45.750003 0 0 1 8.90234,12.4004 h 4.58008 a 37.500002,37.500002 0 0 0 -1.62304,-5.1289 A 37.500002,37.500002 0 0 0 -136,1271.7969 Z"
       transform="matrix(-0.12550773,0,0,0.12550535,-112.50393,-37.591967)"
       id="path1430"
       inkscape:connector-curvature="0" />
    <path
       style="opacity:1;fill:#b18a86;fill-opacity:1;fill-rule:evenodd;stroke:none;stroke-width:0.09089252;stroke-linecap:round;stroke-linejoin:round;stroke-miterlimit:4;stroke-dasharray:none;stroke-opacity:1"
       d="m -87.447351,138.3045 c 0.541819,1.2011 0.994839,2.44078 1.23069,3.61636 0.325893,1.62447 0.333924,4.65741 0.333915,4.65741 0,0 -0.210505,4.65433 -0.717107,6.54497 -9.63e-4,0.004 -0.0029,0.007 -0.0039,0.0105 0.01493,0.50978 0.143682,1.3469 0.115956,1.64471 -0.114665,0.68528 -0.09657,1.39402 -0.294614,2.06371 -0.128879,0.32512 -0.243324,0.66492 -0.453356,0.949 -0.413941,0.47003 -0.820476,0.94855 -1.174451,1.46654 -0.152059,0.34098 -0.601371,0.32833 -0.812165,0.0547 0.0469,-0.61232 1.082107,-1.96747 0.70765,-2.82113 -0.536012,-1.22201 -0.541068,-1.74529 -0.678788,-2.1279 -0.05788,-0.178 -0.333366,0.14648 -0.519054,0.47474 -0.150287,0.26603 -0.174276,0.50811 -0.313017,0.64046 -0.539074,0.51428 -0.611618,-0.10295 -0.475256,-0.63001 0.217901,-0.90372 1.048758,-1.72405 1.318767,-2.49766 0.119876,-0.34344 0.332287,-0.60367 0.583248,-0.78129 -0.06154,-0.11546 -0.104169,-0.21086 -0.114955,-0.26821 -0.445055,-2.36735 -0.795052,-4.10379 -1.353608,-6.37578 -0.206316,-0.83922 -0.37075,-2.56634 -0.37075,-2.56634 l -1.092344,-1.69745 z"
       id="path1652-2"
       inkscape:connector-curvature="0" />
    <path
       sodipodi:nodetypes="ccscaacc"
       inkscape:connector-curvature="0"
       id="path1912"
       d="m 12.608491,399.14047 -6.7219979,10.44547 c 0.6733029,4.19078 2.1049092,9.48924 2.1677293,14.33831 0.1180803,9.11459 -4.2095707,10.96536 -3.7351057,11.1063 6.1413683,-3.92872 3.8681925,-5.75497 5.4696773,-8.82206 1.156425,-2.21473 2.980907,-4.38342 2.970041,-6.88186 -0.01119,-2.57227 -2.500843,-4.75018 -3.1193131,-7.05835 -0.6118,-4.54819 -0.6602764,-7.48824 2.9689691,-13.12781 z"
       style="opacity:0.98999999;fill:url(#linearGradient2600);fill-opacity:1;fill-rule:evenodd;stroke:none;stroke-width:0.35894862;stroke-linecap:round;stroke-linejoin:round;stroke-miterlimit:4;stroke-dasharray:none;stroke-opacity:1;paint-order:stroke fill markers;filter:url(#filter1964)"
       transform="matrix(-0.47435992,0,0,0.47435093,-89.12007,-54.20665)" />
    <path
       style="opacity:0.98999999;fill:url(#linearGradient1971);fill-opacity:1;fill-rule:evenodd;stroke:none;stroke-width:1.57056296;stroke-linecap:round;stroke-linejoin:round;stroke-miterlimit:4;stroke-dasharray:3.1411257, 1.57056283;stroke-dashoffset:0;stroke-opacity:1;paint-order:stroke fill markers;filter:url(#filter2273)"
       d="m 118.61914,1474.7168 c -3.2179,1.9339 -4.48027,3.508 -5.94096,5.881 -0.96962,1.5752 -1.7091,5.2794 -1.7091,5.2794 5.7761,-6.9127 6.73102,-7.7449 13.61331,-11.816 9.32805,-5.5178 14.4397,-1.7482 14.4397,-1.7482 -3.58946,-2.7231 -15.30663,-1.2649 -20.40295,2.4038 z"
       transform="matrix(-0.12550773,0,0,0.12550535,-89.12007,-54.20665)"
       id="path1969"
       inkscape:connector-curvature="0"
       sodipodi:nodetypes="cacscc" />
    <path
       style="opacity:1;fill:#5555ff;fill-opacity:1;stroke:none;stroke-width:0.26458332px;stroke-linecap:butt;stroke-linejoin:miter;stroke-opacity:1"
       d="m -96.367983,130.13381 c 0.183367,0.0115 0.362632,0.024 0.520546,0.0388 0,0 -1.301952,1.13816 -1.952929,1.70724 -0.762686,0.66673 -2.288044,2.00018 -2.288044,2.00018 l -1.83285,-3.64572 c 0.10817,-0.0125 0.23292,-0.0219 0.34985,-0.0328 l 1.594966,3.07442 c 0,0 1.34343,-1.06502 1.94432,-1.58996 0.60089,-0.52493 1.664141,-1.55212 1.664141,-1.55213 z"
       id="path1795"
       inkscape:connector-curvature="0"
       sodipodi:nodetypes="ccacccczc" />
    <path
       sodipodi:type="star"
       style="opacity:1;fill:#5555ff;fill-opacity:1;fill-rule:evenodd;stroke:none;stroke-width:0.44277748;stroke-linecap:round;stroke-linejoin:miter;stroke-miterlimit:4;stroke-dasharray:none;stroke-dashoffset:0;stroke-opacity:1;paint-order:normal"
       id="path2018"
       sodipodi:sides="6"
       sodipodi:cx="99.506516"
       sodipodi:cy="141.13803"
       sodipodi:r1="3.8949039"
       sodipodi:r2="3.3730853"
       sodipodi:arg1="0.52359878"
       sodipodi:arg2="1.0471976"
       inkscape:flatsided="true"
       inkscape:rounded="0.07"
       inkscape:randomized="0"
       d="m 102.8796,143.08548 c -0.13632,0.23612 -3.100441,1.94745 -3.373085,1.94745 -0.272643,0 -3.236764,-1.71133 -3.373085,-1.94745 -0.136322,-0.23611 -0.136322,-3.65878 0,-3.8949 0.136321,-0.23612 3.100442,-1.94745 3.373086,-1.94745 0.272643,0 3.236764,1.71133 3.373084,1.94745 0.13632,0.23612 0.13632,3.65879 0,3.8949 z"
       inkscape:transform-center-x="-2.7899203e-06"
       inkscape:transform-center-y="-2.667451e-06"
       transform="matrix(-0.96301133,0,0,0.96299307,-4.5844448,4.6222871)" />
    <ellipse
       style="opacity:1;fill:#d40055;fill-opacity:1;fill-rule:evenodd;stroke:none;stroke-width:0.45296296;stroke-linecap:round;stroke-linejoin:miter;stroke-miterlimit:4;stroke-dasharray:none;stroke-dashoffset:0;stroke-opacity:1;paint-order:normal"
       id="path2020"
       cx="103.71275"
       cy="138.67841"
       transform="scale(-1,1)"
       rx="1.6303573"
       ry="1.6303264" />
    <path
       style="opacity:0.98999999;fill:url(#linearGradient3563);fill-opacity:1;fill-rule:evenodd;stroke:none;stroke-width:0.20351529;stroke-linecap:round;stroke-linejoin:round;stroke-miterlimit:4;stroke-dasharray:none;stroke-opacity:1"
       d="m -99.719224,116.51479 c 5.208457,0 5.587305,2.49184 5.587305,5.5872 0,0.20262 -0.01233,0.40229 -0.03332,0.59909 -0.104949,-0.0176 -0.215011,-0.0272 -0.329215,-0.0272 -0.674252,0 -1.221175,0.55893 -1.230565,1.25186 l -0.07694,0.87364 h -1.420538 c -0.181432,-2.24611 1.127127,-5.08134 -1.034708,-3.80953 -1.193219,0.70197 -5.526045,0.96441 -5.724825,-1.70707 -0.16254,-2.18457 2.44194,-2.76799 4.262858,-2.76799 z"
       id="rect1291-1-7"
       inkscape:connector-curvature="0"
       sodipodi:nodetypes="cscsccccssc" />
    <path
       style="opacity:1;fill:#b18a86;fill-opacity:1;fill-rule:evenodd;stroke:none;stroke-width:0.16684183;stroke-linecap:round;stroke-linejoin:round;stroke-miterlimit:4;stroke-dasharray:none;stroke-opacity:1;paint-order:stroke fill markers"
       d="m -95.970664,122.73264 c 0,0.70126 0.387102,1.26973 1.06721,1.26973 0.680107,0 1.395682,-0.83126 1.395682,-1.53252 0,-0.70126 -0.551333,-1.00696 -1.231441,-1.00696 -0.680107,0 -1.231451,0.56848 -1.231451,1.26975 z"
       id="path1363-0-5"
       inkscape:connector-curvature="0"
       sodipodi:nodetypes="ccccc" />
    <rect
       ry="0.16523331"
       rx="0.16523644"
       y="145.90128"
       x="97.857552"
       height="0.33046663"
       width="5.105598"
       id="rect896"
       style="opacity:1;fill:#d3d3d3;fill-opacity:1;fill-rule:evenodd;stroke:none;stroke-width:0.23205715;stroke-linecap:round;stroke-linejoin:miter;stroke-miterlimit:4;stroke-dasharray:none;stroke-dashoffset:0;stroke-opacity:1;paint-order:normal"
       transform="scale(-1,1)" />
    <rect
       style="opacity:1;fill:#d3d3d3;fill-opacity:1;fill-rule:evenodd;stroke:none;stroke-width:0.23205717;stroke-linecap:round;stroke-linejoin:miter;stroke-miterlimit:4;stroke-dasharray:none;stroke-dashoffset:0;stroke-opacity:1;paint-order:normal"
       id="rect898"
       width="5.579658"
       height="0.33046663"
       x="97.620514"
       y="146.7365"
       rx="0.16523644"
       ry="0.16523331"
       transform="scale(-1,1)" />
    <rect
       ry="0.16523331"
       rx="0.16523644"
       y="147.57173"
       x="98.354179"
       height="0.33046663"
       width="4.1123309"
       id="rect900"
       style="opacity:1;fill:#d3d3d3;fill-opacity:1;fill-rule:evenodd;stroke:none;stroke-width:0.23205717;stroke-linecap:round;stroke-linejoin:miter;stroke-miterlimit:4;stroke-dasharray:none;stroke-dashoffset:0;stroke-opacity:1;paint-order:normal"
       transform="scale(-1,1)" />
    <path
       style="opacity:1;fill:url(#linearGradient2635);fill-opacity:1;fill-rule:evenodd;stroke:none;stroke-width:0.17026922;stroke-linecap:round;stroke-linejoin:round;stroke-miterlimit:4;stroke-dasharray:none;stroke-opacity:1;paint-order:stroke fill markers"
       d="m -99.089424,150.2375 c 3.412142,2.00869 4.054528,0.56912 6.129066,1.74273 0.460262,0.9286 1.442447,1.87375 0.674802,2.77236 -3.329593,3.89765 -11.173494,3.68042 -14.421894,-0.28515 -0.57796,-0.70556 -0.43986,-1.56639 -0.0891,-2.48721 4.84907,-0.28762 1.09337,-2.52677 7.707106,-1.74273 z"
       id="path2610"
       inkscape:connector-curvature="0"
       sodipodi:nodetypes="cccccc" />
  </g>
</svg>
