<?xml version="1.0" encoding="UTF-8" standalone="no"?>
<!-- Created with Inkscape (http://www.inkscape.org/) -->

<svg
   xmlns:dc="http://purl.org/dc/elements/1.1/"
   xmlns:cc="http://creativecommons.org/ns#"
   xmlns:rdf="http://www.w3.org/1999/02/22-rdf-syntax-ns#"
   xmlns:svg="http://www.w3.org/2000/svg"
   xmlns="http://www.w3.org/2000/svg"
   xmlns:xlink="http://www.w3.org/1999/xlink"
   xmlns:sodipodi="http://sodipodi.sourceforge.net/DTD/sodipodi-0.dtd"
   xmlns:inkscape="http://www.inkscape.org/namespaces/inkscape"
   width="58.830093mm"
   height="48.416256mm"
   viewBox="0 0 58.830093 48.416256"
   version="1.1"
   id="svg6231"
   inkscape:version="0.92.4 5da689c313, 2019-01-14"
   sodipodi:docname="triangle.svg">
  <defs
     id="defs6225">
    <linearGradient
       inkscape:collect="always"
       xlink:href="#linearGradient1210"
       id="linearGradient2854"
       gradientUnits="userSpaceOnUse"
       gradientTransform="scale(1.0590694,0.94422522)"
       x1="126.55887"
       y1="243.05006"
       x2="214.04868"
       y2="243.05006" />
    <linearGradient
       gradientUnits="userSpaceOnUse"
       y2="243.05006"
       x2="214.04868"
       y1="243.05006"
       x1="126.55887"
       gradientTransform="scale(1.0590694,0.94422522)"
       inkscape:collect="always"
       id="linearGradient1210">
      <stop
         style="stop-color:#4ccfd8;stop-opacity:1;"
         offset="0"
         id="stop1206" />
      <stop
         style="stop-color:#27cfbe;stop-opacity:1"
         offset="1"
         id="stop1208" />
    </linearGradient>
    <linearGradient
       inkscape:collect="always"
       xlink:href="#linearGradient2117"
       id="linearGradient2676"
       gradientUnits="userSpaceOnUse"
       x1="134.03462"
       y1="270.79904"
       x2="226.69238"
       y2="270.79904" />
    <linearGradient
       inkscape:collect="always"
       id="linearGradient2117">
      <stop
         style="stop-color:#4ccfd8;stop-opacity:1;"
         offset="0"
         id="stop2113" />
      <stop
         style="stop-color:#27cfbe;stop-opacity:1"
         offset="1"
         id="stop2115" />
    </linearGradient>
    <linearGradient
       inkscape:collect="always"
       xlink:href="#linearGradient2117"
       id="linearGradient6814"
       gradientUnits="userSpaceOnUse"
       x1="134.03462"
       y1="270.79904"
       x2="226.69238"
       y2="270.79904" />
    <linearGradient
       inkscape:collect="always"
       xlink:href="#linearGradient2117"
       id="linearGradient6816"
       gradientUnits="userSpaceOnUse"
       x1="134.03462"
       y1="270.79904"
       x2="226.69238"
       y2="270.79904" />
  </defs>
  <sodipodi:namedview
     id="base"
     pagecolor="#ffffff"
     bordercolor="#666666"
     borderopacity="1.0"
     inkscape:pageopacity="0.0"
     inkscape:pageshadow="2"
     inkscape:zoom="0.35"
     inkscape:cx="-497.39645"
     inkscape:cy="-145.64757"
     inkscape:document-units="mm"
     inkscape:current-layer="layer1"
     showgrid="false"
     inkscape:window-width="1366"
     inkscape:window-height="698"
     inkscape:window-x="0"
     inkscape:window-y="0"
     inkscape:window-maximized="1" />
  <metadata
     id="metadata6228">
    <rdf:RDF>
      <cc:Work
         rdf:about="">
        <dc:format>image/svg+xml</dc:format>
        <dc:type
           rdf:resource="http://purl.org/dc/dcmitype/StillImage" />
        <dc:title></dc:title>
      </cc:Work>
    </rdf:RDF>
  </metadata>
  <g
     inkscape:label="Camada 1"
     inkscape:groupmode="layer"
     id="layer1"
     transform="translate(-96.829002,-61.881158)">
    <g
       id="g2612"
       style="opacity:0.50199998;fill:url(#linearGradient2854);fill-opacity:1"
       transform="matrix(-0.51805364,0,0,0.51805364,225.09622,-51.389246)">
      <path
         inkscape:connector-curvature="0"
         id="path2584"
         d="m 180.36522,229.49401 a 8.8243343,8.8243343 0 0 0 -7.69875,4.52737 l -18.69085,32.37322 -18.68517,32.36391 h -5.1e-4 a 8.8243349,8.8243349 0 0 0 -0.078,8.94003 8.8243349,8.8243349 0 0 0 7.77006,4.40283 l -0.001,-0.003 h 37.38015 37.37136 l 1.21853,-7.11636 6.49211,-6.21408 -18.69136,-32.37426 -18.68465,-32.36185 0.002,-5.2e-4 a 8.8243343,8.8243343 0 0 0 -7.70341,-4.53719 z m 45.07787,69.27485 -6.48952,6.21564 -1.21957,7.11843 a 8.8243346,8.8243346 0 0 0 7.78092,-4.40388 8.8243346,8.8243346 0 0 0 -0.0718,-8.93019 z"
         style="opacity:1;fill:url(#linearGradient6814);fill-opacity:1;fill-rule:evenodd;stroke:none;stroke-width:0.01322917;stroke-linecap:butt;stroke-linejoin:round;stroke-miterlimit:4;stroke-dasharray:none;stroke-dashoffset:0;stroke-opacity:1;paint-order:stroke fill markers" />
    </g>
    <g
       style="opacity:0.50199998;fill:url(#linearGradient2676);fill-opacity:1"
       id="g2616"
       transform="matrix(-0.51805364,0,0,0.51805364,214.26782,-57.009049)">
      <path
         style="opacity:1;fill:url(#linearGradient6816);fill-opacity:1;fill-rule:evenodd;stroke:none;stroke-width:0.01322917;stroke-linecap:butt;stroke-linejoin:round;stroke-miterlimit:4;stroke-dasharray:none;stroke-dashoffset:0;stroke-opacity:1;paint-order:stroke fill markers"
         d="m 180.36522,229.49401 a 8.8243343,8.8243343 0 0 0 -7.69875,4.52737 l -18.69085,32.37322 -18.68517,32.36391 h -5.1e-4 a 8.8243349,8.8243349 0 0 0 -0.078,8.94003 8.8243349,8.8243349 0 0 0 7.77006,4.40283 l -0.001,-0.003 h 37.38015 37.37136 l 1.21853,-7.11636 6.49211,-6.21408 -18.69136,-32.37426 -18.68465,-32.36185 0.002,-5.2e-4 a 8.8243343,8.8243343 0 0 0 -7.70341,-4.53719 z m 45.07787,69.27485 -6.48952,6.21564 -1.21957,7.11843 a 8.8243346,8.8243346 0 0 0 7.78092,-4.40388 8.8243346,8.8243346 0 0 0 -0.0718,-8.93019 z"
         id="path2614"
         inkscape:connector-curvature="0" />
    </g>
  </g>
</svg>
