<?xml version="1.0" encoding="UTF-8" standalone="no"?>
<!-- Created with Inkscape (http://www.inkscape.org/) -->

<svg
   xmlns:dc="http://purl.org/dc/elements/1.1/"
   xmlns:cc="http://creativecommons.org/ns#"
   xmlns:rdf="http://www.w3.org/1999/02/22-rdf-syntax-ns#"
   xmlns:svg="http://www.w3.org/2000/svg"
   xmlns="http://www.w3.org/2000/svg"
   xmlns:sodipodi="http://sodipodi.sourceforge.net/DTD/sodipodi-0.dtd"
   xmlns:inkscape="http://www.inkscape.org/namespaces/inkscape"
   width="320"
   height="260"
   viewBox="0 0 84.666665 68.791666"
   version="1.1"
   id="svg6231"
   inkscape:version="0.92.4 5da689c313, 2019-01-14"
   sodipodi:docname="triangle.svg">
  <defs
     id="defs6225" />
  <sodipodi:namedview
     id="base"
     pagecolor="#ffffff"
     bordercolor="#666666"
     borderopacity="1.0"
     inkscape:pageopacity="0.0"
     inkscape:pageshadow="2"
     inkscape:zoom="1"
     inkscape:cx="93.491955"
     inkscape:cy="151.77905"
     inkscape:document-units="px"
     inkscape:current-layer="layer1"
     showgrid="false"
     inkscape:window-width="932"
     inkscape:window-height="686"
     inkscape:window-x="435"
     inkscape:window-y="4"
     inkscape:window-maximized="0"
     units="px" />
  <metadata
     id="metadata6228">
    <rdf:RDF>
      <cc:Work
         rdf:about="">
        <dc:format>image/svg+xml</dc:format>
        <dc:type
           rdf:resource="http://purl.org/dc/dcmitype/StillImage" />
        <dc:title></dc:title>
      </cc:Work>
    </rdf:RDF>
  </metadata>
  <g
     inkscape:label="Camada 1"
     inkscape:groupmode="layer"
     id="layer1"
     transform="translate(-93.775064,-39.918249)">
    <g
       id="g1459"
       transform="matrix(1.0828356,0,0,1.0828356,-0.65319362,-19.396135)">
      <g
         transform="matrix(-0.51805364,0,0,0.51805364,216.10033,-55.093415)"
         id="g2616"
         style="opacity:1;fill:#cbdcfc;fill-opacity:1">
        <path
           inkscape:connector-curvature="0"
           id="path2614"
           d="m 180.36522,229.49401 a 8.8243343,8.8243343 0 0 0 -7.69875,4.52737 l -18.69085,32.37322 -18.68517,32.36391 h -5.1e-4 a 8.8243349,8.8243349 0 0 0 -0.078,8.94003 8.8243349,8.8243349 0 0 0 7.77006,4.40283 l -0.001,-0.003 h 37.38015 37.37136 l 1.21853,-7.11636 6.49211,-6.21408 -18.69136,-32.37426 -18.68465,-32.36185 0.002,-5.2e-4 a 8.8243343,8.8243343 0 0 0 -7.70341,-4.53719 z m 45.07787,69.27485 -6.48952,6.21564 -1.21957,7.11843 a 8.8243346,8.8243346 0 0 0 7.78092,-4.40388 8.8243346,8.8243346 0 0 0 -0.0718,-8.93019 z"
           style="opacity:1;fill:#cbdcfc;fill-opacity:1;fill-rule:evenodd;stroke:none;stroke-width:0.01322917;stroke-linecap:butt;stroke-linejoin:round;stroke-miterlimit:4;stroke-dasharray:none;stroke-dashoffset:0;stroke-opacity:1;paint-order:stroke fill markers" />
      </g>
      <g
         transform="matrix(-0.51805364,0,0,0.51805364,223.50871,-52.976747)"
         style="opacity:0.70700001;fill:#e6eafc;fill-opacity:1"
         id="g2612">
        <path
           style="opacity:1;fill:#e6eafc;fill-opacity:1;fill-rule:evenodd;stroke:none;stroke-width:0.01322917;stroke-linecap:butt;stroke-linejoin:round;stroke-miterlimit:4;stroke-dasharray:none;stroke-dashoffset:0;stroke-opacity:1;paint-order:stroke fill markers"
           d="m 180.36522,229.49401 a 8.8243343,8.8243343 0 0 0 -7.69875,4.52737 l -18.69085,32.37322 -18.68517,32.36391 h -5.1e-4 a 8.8243349,8.8243349 0 0 0 -0.078,8.94003 8.8243349,8.8243349 0 0 0 7.77006,4.40283 l -0.001,-0.003 h 37.38015 37.37136 l 1.21853,-7.11636 6.49211,-6.21408 -18.69136,-32.37426 -18.68465,-32.36185 0.002,-5.2e-4 a 8.8243343,8.8243343 0 0 0 -7.70341,-4.53719 z m 45.07787,69.27485 -6.48952,6.21564 -1.21957,7.11843 a 8.8243346,8.8243346 0 0 0 7.78092,-4.40388 8.8243346,8.8243346 0 0 0 -0.0718,-8.93019 z"
           id="path2584"
           inkscape:connector-curvature="0" />
      </g>
    </g>
    <text
       xml:space="preserve"
       style="font-style:normal;font-weight:normal;font-size:5.49231863px;line-height:1.25;font-family:sans-serif;letter-spacing:0px;word-spacing:0px;fill:#093458;fill-opacity:1;stroke:none;stroke-width:0.13730797"
       x="99.164658"
       y="65.444626"
       id="text1435"><tspan
         sodipodi:role="line"
         id="tspan1445"
         x="99.164658"
         y="65.444626"
         style="font-style:normal;font-variant:normal;font-weight:200;font-stretch:normal;font-size:4.93888903px;line-height:3.70416665px;font-family:'DejaVu Sans';-inkscape-font-specification:'DejaVu Sans, Ultra-Light';font-variant-ligatures:normal;font-variant-caps:normal;font-variant-numeric:normal;font-feature-settings:normal;text-align:start;writing-mode:lr-tb;text-anchor:start;fill:#093458;fill-opacity:1;stroke-width:0.13730797">Não se satisfaça com os</tspan><tspan
         sodipodi:role="line"
         id="tspan1449"
         x="99.164658"
         y="72.31002"
         style="font-style:normal;font-variant:normal;font-weight:200;font-stretch:normal;font-size:4.93888903px;line-height:3.70416665px;font-family:'DejaVu Sans';-inkscape-font-specification:'DejaVu Sans, Ultra-Light';font-variant-ligatures:normal;font-variant-caps:normal;font-variant-numeric:normal;font-feature-settings:normal;text-align:start;writing-mode:lr-tb;text-anchor:start;fill:#093458;fill-opacity:1;stroke-width:0.13730797">números atuais, aumente o </tspan><tspan
         sodipodi:role="line"
         id="tspan1451"
         x="99.164658"
         y="79.175423"
         style="font-style:normal;font-variant:normal;font-weight:200;font-stretch:normal;font-size:4.93888903px;line-height:3.70416665px;font-family:'DejaVu Sans';-inkscape-font-specification:'DejaVu Sans, Ultra-Light';font-variant-ligatures:normal;font-variant-caps:normal;font-variant-numeric:normal;font-feature-settings:normal;text-align:start;writing-mode:lr-tb;text-anchor:start;fill:#093458;fill-opacity:1;stroke-width:0.13730797">engajamento da sua empresa </tspan><tspan
         sodipodi:role="line"
         id="tspan1453"
         x="99.164658"
         y="86.040817"
         style="font-style:normal;font-variant:normal;font-weight:200;font-stretch:normal;font-size:4.93888903px;line-height:3.70416665px;font-family:'DejaVu Sans';-inkscape-font-specification:'DejaVu Sans, Ultra-Light';font-variant-ligatures:normal;font-variant-caps:normal;font-variant-numeric:normal;font-feature-settings:normal;text-align:start;writing-mode:lr-tb;text-anchor:start;fill:#093458;fill-opacity:1;stroke-width:0.13730797">e seja referência no mercado</tspan></text>
  </g>
</svg>
